<svg width="1200" height="400" viewBox="0 0 1200 400" fill="none" xmlns="http://www.w3.org/2000/svg">
<rect width="1200" height="400" fill="#1E1E1E"/>
<path d="M537.44 170.16C541.6 170.16 544.9 171.42 547.34 173.94C549.82 176.46 551.06 179.96 551.06 184.44V204H540.86V185.82C540.86 183.66 540.28 182 539.12 180.84C538 179.64 536.44 179.04 534.44 179.04C532.44 179.04 530.86 179.64 529.7 180.84C528.58 182 528.02 183.66 528.02 185.82V204H517.82V185.82C517.82 183.66 517.24 182 516.08 180.84C514.96 179.64 513.4 179.04 511.4 179.04C509.4 179.04 507.82 179.64 506.66 180.84C505.54 182 504.98 183.66 504.98 185.82V204H494.72V170.52H504.98V174.72C506.02 173.32 507.38 172.22 509.06 171.42C510.74 170.58 512.64 170.16 514.76 170.16C517.28 170.16 519.52 170.7 521.48 171.78C523.48 172.86 525.04 174.4 526.16 176.4C527.32 174.56 528.9 173.06 530.9 171.9C532.9 170.74 535.08 170.16 537.44 170.16ZM555.596 187.2C555.596 183.76 556.236 180.74 557.516 178.14C558.836 175.54 560.616 173.54 562.856 172.14C565.096 170.74 567.596 170.04 570.356 170.04C572.716 170.04 574.776 170.52 576.536 171.48C578.336 172.44 579.716 173.7 580.676 175.26V170.52H590.936V204H580.676V199.26C579.676 200.82 578.276 202.08 576.476 203.04C574.716 204 572.656 204.48 570.296 204.48C567.576 204.48 565.096 203.78 562.856 202.38C560.616 200.94 558.836 198.92 557.516 196.32C556.236 193.68 555.596 190.64 555.596 187.2ZM580.676 187.26C580.676 184.7 579.956 182.68 578.516 181.2C577.116 179.72 575.396 178.98 573.356 178.98C571.316 178.98 569.576 179.72 568.136 181.2C566.736 182.64 566.036 184.64 566.036 187.2C566.036 189.76 566.736 191.8 568.136 193.32C569.576 194.8 571.316 195.54 573.356 195.54C575.396 195.54 577.116 194.8 578.516 193.32C579.956 191.84 580.676 189.82 580.676 187.26ZM602.918 167.04C601.118 167.04 599.638 166.52 598.478 165.48C597.358 164.4 596.798 163.08 596.798 161.52C596.798 159.92 597.358 158.6 598.478 157.56C599.638 156.48 601.118 155.94 602.918 155.94C604.678 155.94 606.118 156.48 607.238 157.56C608.398 158.6 608.978 159.92 608.978 161.52C608.978 163.08 608.398 164.4 607.238 165.48C606.118 166.52 604.678 167.04 602.918 167.04ZM608.018 170.52V204H597.758V170.52H608.018ZM625.114 159.6V204H614.854V159.6H625.114ZM644.669 170.04C647.029 170.04 649.089 170.52 650.849 171.48C652.649 172.44 654.029 173.7 654.989 175.26V170.52H665.249V203.94C665.249 207.02 664.629 209.8 663.389 212.28C662.189 214.8 660.329 216.8 657.809 218.28C655.329 219.76 652.229 220.5 648.509 220.5C643.549 220.5 639.529 219.32 636.449 216.96C633.369 214.64 631.609 211.48 631.169 207.48H641.309C641.629 208.76 642.389 209.76 643.589 210.48C644.789 211.24 646.269 211.62 648.029 211.62C650.149 211.62 651.829 211 653.069 209.76C654.349 208.56 654.989 206.62 654.989 203.94V199.2C653.989 200.76 652.609 202.04 650.849 203.04C649.089 204 647.029 204.48 644.669 204.48C641.909 204.48 639.409 203.78 637.169 202.38C634.929 200.94 633.149 198.92 631.829 196.32C630.549 193.68 629.909 190.64 629.909 187.2C629.909 183.76 630.549 180.74 631.829 178.14C633.149 175.54 634.929 173.54 637.169 172.14C639.409 170.74 641.909 170.04 644.669 170.04ZM654.989 187.26C654.989 184.7 654.269 182.68 652.829 181.2C651.429 179.72 649.709 178.98 647.669 178.98C645.629 178.98 643.889 179.72 642.449 181.2C641.049 182.64 640.349 184.64 640.349 187.2C640.349 189.76 641.049 191.8 642.449 193.32C643.889 194.8 645.629 195.54 647.669 195.54C649.709 195.54 651.429 194.8 652.829 193.32C654.269 191.84 654.989 189.82 654.989 187.26ZM682.332 176.1C683.532 174.26 685.032 172.82 686.832 171.78C688.632 170.7 690.632 170.16 692.832 170.16V181.02H690.012C687.452 181.02 685.532 181.58 684.252 182.7C682.972 183.78 682.332 185.7 682.332 188.46V204H672.072V170.52H682.332V176.1ZM702.296 167.04C700.496 167.04 699.016 166.52 697.856 165.48C696.736 164.4 696.176 163.08 696.176 161.52C696.176 159.92 696.736 158.6 697.856 157.56C699.016 156.48 700.496 155.94 702.296 155.94C704.056 155.94 705.496 156.48 706.616 157.56C707.776 158.6 708.356 159.92 708.356 161.52C708.356 163.08 707.776 164.4 706.616 165.48C705.496 166.52 704.056 167.04 702.296 167.04ZM707.396 170.52V204H697.136V170.52H707.396ZM712.191 187.2C712.191 183.76 712.831 180.74 714.111 178.14C715.431 175.54 717.211 173.54 719.451 172.14C721.691 170.74 724.191 170.04 726.951 170.04C729.151 170.04 731.151 170.5 732.951 171.42C734.791 172.34 736.231 173.58 737.271 175.14V159.6H747.531V204H737.271V199.2C736.311 200.8 734.931 202.08 733.131 203.04C731.371 204 729.311 204.48 726.951 204.48C724.191 204.48 721.691 203.78 719.451 202.38C717.211 200.94 715.431 198.92 714.111 196.32C712.831 193.68 712.191 190.64 712.191 187.2ZM737.271 187.26C737.271 184.7 736.551 182.68 735.111 181.2C733.711 179.72 731.991 178.98 729.951 178.98C727.911 178.98 726.171 179.72 724.731 181.2C723.331 182.64 722.631 184.64 722.631 187.2C722.631 189.76 723.331 191.8 724.731 193.32C726.171 194.8 727.911 195.54 729.951 195.54C731.991 195.54 733.711 194.8 735.111 193.32C736.551 191.84 737.271 189.82 737.271 187.26Z" fill="white"/>
<path d="M456.75 181.75L466.125 188L475.5 181.75" stroke="#F64A4A" stroke-width="1.5" stroke-linecap="round" stroke-linejoin="round"/>
<path d="M444.25 191.125H448.417" stroke="#F64A4A" stroke-width="1.5" stroke-linecap="round" stroke-linejoin="round"/>
<path d="M440.083 184.875H448.417" stroke="#F64A4A" stroke-width="1.5" stroke-linecap="round" stroke-linejoin="round"/>
<path d="M448.417 178.625V177.583C448.417 175.282 450.282 173.417 452.583 173.417H479.667C481.968 173.417 483.833 175.282 483.833 177.583V198.417C483.833 200.718 481.968 202.583 479.667 202.583H452.583C450.282 202.583 448.417 200.718 448.417 198.417V197.375" stroke="#F64A4A" stroke-width="1.5" stroke-linecap="round"/>
<path d="M272.132 229.015V231.154H265.347V235.869H270.637V238.008H265.347V245H262.725V229.015H272.132ZM273.458 238.606C273.458 237.333 273.719 236.206 274.24 235.225C274.777 234.244 275.497 233.485 276.402 232.948C277.322 232.396 278.334 232.12 279.438 232.12C280.435 232.12 281.301 232.319 282.037 232.718C282.788 233.101 283.386 233.584 283.831 234.167V232.327H286.476V245H283.831V243.114C283.386 243.712 282.781 244.21 282.014 244.609C281.247 245.008 280.373 245.207 279.392 245.207C278.303 245.207 277.307 244.931 276.402 244.379C275.497 243.812 274.777 243.03 274.24 242.033C273.719 241.021 273.458 239.879 273.458 238.606ZM283.831 238.652C283.831 237.778 283.647 237.019 283.279 236.375C282.926 235.731 282.459 235.24 281.876 234.903C281.293 234.566 280.665 234.397 279.99 234.397C279.315 234.397 278.687 234.566 278.104 234.903C277.521 235.225 277.046 235.708 276.678 236.352C276.325 236.981 276.149 237.732 276.149 238.606C276.149 239.48 276.325 240.247 276.678 240.906C277.046 241.565 277.521 242.071 278.104 242.424C278.702 242.761 279.331 242.93 279.99 242.93C280.665 242.93 281.293 242.761 281.876 242.424C282.459 242.087 282.926 241.596 283.279 240.952C283.647 240.293 283.831 239.526 283.831 238.652ZM294.29 245.207C293.293 245.207 292.396 245.031 291.599 244.678C290.817 244.31 290.196 243.819 289.736 243.206C289.276 242.577 289.03 241.88 289 241.113H291.714C291.76 241.65 292.013 242.102 292.473 242.47C292.948 242.823 293.538 242.999 294.244 242.999C294.98 242.999 295.547 242.861 295.946 242.585C296.36 242.294 296.567 241.926 296.567 241.481C296.567 241.006 296.337 240.653 295.877 240.423C295.432 240.193 294.719 239.94 293.738 239.664C292.787 239.403 292.013 239.15 291.415 238.905C290.817 238.66 290.295 238.284 289.851 237.778C289.421 237.272 289.207 236.605 289.207 235.777C289.207 235.102 289.406 234.489 289.805 233.937C290.203 233.37 290.771 232.925 291.507 232.603C292.258 232.281 293.117 232.12 294.083 232.12C295.524 232.12 296.682 232.488 297.556 233.224C298.445 233.945 298.92 234.934 298.982 236.191H296.36C296.314 235.624 296.084 235.171 295.67 234.834C295.256 234.497 294.696 234.328 293.991 234.328C293.301 234.328 292.772 234.458 292.404 234.719C292.036 234.98 291.852 235.325 291.852 235.754C291.852 236.091 291.974 236.375 292.22 236.605C292.465 236.835 292.764 237.019 293.117 237.157C293.469 237.28 293.991 237.441 294.681 237.64C295.601 237.885 296.352 238.138 296.935 238.399C297.533 238.644 298.046 239.012 298.476 239.503C298.905 239.994 299.127 240.645 299.143 241.458C299.143 242.179 298.943 242.823 298.545 243.39C298.146 243.957 297.579 244.402 296.843 244.724C296.122 245.046 295.271 245.207 294.29 245.207ZM304.805 234.466V241.481C304.805 241.956 304.912 242.301 305.127 242.516C305.357 242.715 305.74 242.815 306.277 242.815H307.887V245H305.817C304.636 245 303.732 244.724 303.103 244.172C302.474 243.62 302.16 242.723 302.16 241.481V234.466H300.665V232.327H302.16V229.176H304.805V232.327H307.887V234.466H304.805ZM312.949 241.849L310.166 248.197H308.464L310.097 241.849H312.949ZM319.88 238.652C319.88 237.349 320.141 236.206 320.662 235.225C321.199 234.228 321.935 233.462 322.87 232.925C323.806 232.388 324.879 232.12 326.09 232.12C327.624 232.12 328.889 232.488 329.885 233.224C330.897 233.945 331.58 234.98 331.932 236.329H329.103C328.873 235.7 328.505 235.21 327.999 234.857C327.493 234.504 326.857 234.328 326.09 234.328C325.017 234.328 324.158 234.711 323.514 235.478C322.886 236.229 322.571 237.287 322.571 238.652C322.571 240.017 322.886 241.082 323.514 241.849C324.158 242.616 325.017 242.999 326.09 242.999C327.608 242.999 328.613 242.332 329.103 240.998H331.932C331.564 242.286 330.874 243.313 329.862 244.08C328.85 244.831 327.593 245.207 326.09 245.207C324.879 245.207 323.806 244.939 322.87 244.402C321.935 243.85 321.199 243.083 320.662 242.102C320.141 241.105 319.88 239.955 319.88 238.652ZM339.812 245.207C338.616 245.207 337.535 244.939 336.569 244.402C335.603 243.85 334.844 243.083 334.292 242.102C333.74 241.105 333.464 239.955 333.464 238.652C333.464 237.364 333.748 236.222 334.315 235.225C334.883 234.228 335.657 233.462 336.638 232.925C337.62 232.388 338.716 232.12 339.927 232.12C341.139 232.12 342.235 232.388 343.216 232.925C344.198 233.462 344.972 234.228 345.539 235.225C346.107 236.222 346.39 237.364 346.39 238.652C346.39 239.94 346.099 241.082 345.516 242.079C344.934 243.076 344.136 243.85 343.124 244.402C342.128 244.939 341.024 245.207 339.812 245.207ZM339.812 242.93C340.487 242.93 341.116 242.769 341.698 242.447C342.296 242.125 342.779 241.642 343.147 240.998C343.515 240.354 343.699 239.572 343.699 238.652C343.699 237.732 343.523 236.958 343.17 236.329C342.818 235.685 342.35 235.202 341.767 234.88C341.185 234.558 340.556 234.397 339.881 234.397C339.207 234.397 338.578 234.558 337.995 234.88C337.428 235.202 336.976 235.685 336.638 236.329C336.301 236.958 336.132 237.732 336.132 238.652C336.132 240.017 336.477 241.075 337.167 241.826C337.873 242.562 338.754 242.93 339.812 242.93ZM355.146 232.12C356.143 232.12 357.032 232.327 357.814 232.741C358.612 233.155 359.233 233.768 359.677 234.581C360.122 235.394 360.344 236.375 360.344 237.525V245H357.745V237.916C357.745 236.781 357.462 235.915 356.894 235.317C356.327 234.704 355.553 234.397 354.571 234.397C353.59 234.397 352.808 234.704 352.225 235.317C351.658 235.915 351.374 236.781 351.374 237.916V245H348.752V232.327H351.374V233.776C351.804 233.255 352.348 232.848 353.007 232.557C353.682 232.266 354.395 232.12 355.146 232.12ZM362.585 238.652C362.585 237.349 362.845 236.206 363.367 235.225C363.903 234.228 364.639 233.462 365.575 232.925C366.51 232.388 367.583 232.12 368.795 232.12C370.328 232.12 371.593 232.488 372.59 233.224C373.602 233.945 374.284 234.98 374.637 236.329H371.808C371.578 235.7 371.21 235.21 370.704 234.857C370.198 234.504 369.561 234.328 368.795 234.328C367.721 234.328 366.863 234.711 366.219 235.478C365.59 236.229 365.276 237.287 365.276 238.652C365.276 240.017 365.59 241.082 366.219 241.849C366.863 242.616 367.721 242.999 368.795 242.999C370.313 242.999 371.317 242.332 371.808 240.998H374.637C374.269 242.286 373.579 243.313 372.567 244.08C371.555 244.831 370.297 245.207 368.795 245.207C367.583 245.207 366.51 244.939 365.575 244.402C364.639 243.85 363.903 243.083 363.367 242.102C362.845 241.105 362.585 239.955 362.585 238.652ZM388.497 232.327V245H385.875V243.505C385.461 244.026 384.916 244.44 384.242 244.747C383.582 245.038 382.877 245.184 382.126 245.184C381.129 245.184 380.232 244.977 379.435 244.563C378.653 244.149 378.032 243.536 377.572 242.723C377.127 241.91 376.905 240.929 376.905 239.779V232.327H379.504V239.388C379.504 240.523 379.787 241.397 380.355 242.01C380.922 242.608 381.696 242.907 382.678 242.907C383.659 242.907 384.433 242.608 385.001 242.01C385.583 241.397 385.875 240.523 385.875 239.388V232.327H388.497ZM394.348 234.167C394.732 233.523 395.238 233.025 395.866 232.672C396.51 232.304 397.269 232.12 398.143 232.12V234.834H397.476C396.449 234.834 395.667 235.095 395.13 235.616C394.609 236.137 394.348 237.042 394.348 238.33V245H391.726V232.327H394.348V234.167ZM402.945 234.167C403.329 233.523 403.835 233.025 404.463 232.672C405.107 232.304 405.866 232.12 406.74 232.12V234.834H406.073C405.046 234.834 404.264 235.095 403.727 235.616C403.206 236.137 402.945 237.042 402.945 238.33V245H400.323V232.327H402.945V234.167ZM420.536 238.353C420.536 238.828 420.505 239.258 420.444 239.641H410.761C410.837 240.653 411.213 241.466 411.888 242.079C412.562 242.692 413.39 242.999 414.372 242.999C415.782 242.999 416.779 242.409 417.362 241.228H420.191C419.807 242.393 419.11 243.352 418.098 244.103C417.101 244.839 415.859 245.207 414.372 245.207C413.16 245.207 412.072 244.939 411.106 244.402C410.155 243.85 409.404 243.083 408.852 242.102C408.315 241.105 408.047 239.955 408.047 238.652C408.047 237.349 408.307 236.206 408.829 235.225C409.365 234.228 410.109 233.462 411.06 232.925C412.026 232.388 413.13 232.12 414.372 232.12C415.568 232.12 416.633 232.381 417.569 232.902C418.504 233.423 419.232 234.159 419.754 235.11C420.275 236.045 420.536 237.126 420.536 238.353ZM417.799 237.525C417.783 236.559 417.438 235.785 416.764 235.202C416.089 234.619 415.253 234.328 414.257 234.328C413.352 234.328 412.578 234.619 411.934 235.202C411.29 235.769 410.906 236.544 410.784 237.525H417.799ZM429.28 232.12C430.277 232.12 431.166 232.327 431.948 232.741C432.745 233.155 433.366 233.768 433.811 234.581C434.256 235.394 434.478 236.375 434.478 237.525V245H431.879V237.916C431.879 236.781 431.595 235.915 431.028 235.317C430.461 234.704 429.686 234.397 428.705 234.397C427.724 234.397 426.942 234.704 426.359 235.317C425.792 235.915 425.508 236.781 425.508 237.916V245H422.886V232.327H425.508V233.776C425.937 233.255 426.482 232.848 427.141 232.557C427.816 232.266 428.529 232.12 429.28 232.12ZM440.651 234.466V241.481C440.651 241.956 440.759 242.301 440.973 242.516C441.203 242.715 441.587 242.815 442.123 242.815H443.733V245H441.663C440.483 245 439.578 244.724 438.949 244.172C438.321 243.62 438.006 242.723 438.006 241.481V234.466H436.511V232.327H438.006V229.176H440.651V232.327H443.733V234.466H440.651ZM450.791 238.606C450.791 237.333 451.051 236.206 451.573 235.225C452.109 234.244 452.83 233.485 453.735 232.948C454.655 232.396 455.674 232.12 456.794 232.12C457.622 232.12 458.434 232.304 459.232 232.672C460.044 233.025 460.688 233.5 461.164 234.098V227.98H463.809V245H461.164V243.091C460.734 243.704 460.136 244.21 459.37 244.609C458.618 245.008 457.752 245.207 456.771 245.207C455.667 245.207 454.655 244.931 453.735 244.379C452.83 243.812 452.109 243.03 451.573 242.033C451.051 241.021 450.791 239.879 450.791 238.606ZM461.164 238.652C461.164 237.778 460.98 237.019 460.612 236.375C460.259 235.731 459.791 235.24 459.209 234.903C458.626 234.566 457.997 234.397 457.323 234.397C456.648 234.397 456.019 234.566 455.437 234.903C454.854 235.225 454.379 235.708 454.011 236.352C453.658 236.981 453.482 237.732 453.482 238.606C453.482 239.48 453.658 240.247 454.011 240.906C454.379 241.565 454.854 242.071 455.437 242.424C456.035 242.761 456.663 242.93 457.323 242.93C457.997 242.93 458.626 242.761 459.209 242.424C459.791 242.087 460.259 241.596 460.612 240.952C460.98 240.293 461.164 239.526 461.164 238.652ZM478.638 238.353C478.638 238.828 478.607 239.258 478.546 239.641H468.863C468.939 240.653 469.315 241.466 469.99 242.079C470.664 242.692 471.492 242.999 472.474 242.999C473.884 242.999 474.881 242.409 475.464 241.228H478.293C477.909 242.393 477.212 243.352 476.2 244.103C475.203 244.839 473.961 245.207 472.474 245.207C471.262 245.207 470.174 244.939 469.208 244.402C468.257 243.85 467.506 243.083 466.954 242.102C466.417 241.105 466.149 239.955 466.149 238.652C466.149 237.349 466.409 236.206 466.931 235.225C467.467 234.228 468.211 233.462 469.162 232.925C470.128 232.388 471.232 232.12 472.474 232.12C473.67 232.12 474.735 232.381 475.671 232.902C476.606 233.423 477.334 234.159 477.856 235.11C478.377 236.045 478.638 237.126 478.638 238.353ZM475.901 237.525C475.885 236.559 475.54 235.785 474.866 235.202C474.191 234.619 473.355 234.328 472.359 234.328C471.454 234.328 470.68 234.619 470.036 235.202C469.392 235.769 469.008 236.544 468.886 237.525H475.901ZM483.61 227.98V245H480.988V227.98H483.61ZM488.156 230.648C487.681 230.648 487.282 230.487 486.96 230.165C486.638 229.843 486.477 229.444 486.477 228.969C486.477 228.494 486.638 228.095 486.96 227.773C487.282 227.451 487.681 227.29 488.156 227.29C488.616 227.29 489.007 227.451 489.329 227.773C489.651 228.095 489.812 228.494 489.812 228.969C489.812 229.444 489.651 229.843 489.329 230.165C489.007 230.487 488.616 230.648 488.156 230.648ZM489.444 232.327V245H486.822V232.327H489.444ZM497.556 242.654L501.144 232.327H503.927L499.097 245H495.969L491.162 232.327H493.968L497.556 242.654ZM517.294 238.353C517.294 238.828 517.263 239.258 517.202 239.641H507.519C507.595 240.653 507.971 241.466 508.646 242.079C509.32 242.692 510.148 242.999 511.13 242.999C512.54 242.999 513.537 242.409 514.12 241.228H516.949C516.565 242.393 515.868 243.352 514.856 244.103C513.859 244.839 512.617 245.207 511.13 245.207C509.918 245.207 508.83 244.939 507.864 244.402C506.913 243.85 506.162 243.083 505.61 242.102C505.073 241.105 504.805 239.955 504.805 238.652C504.805 237.349 505.065 236.206 505.587 235.225C506.123 234.228 506.867 233.462 507.818 232.925C508.784 232.388 509.888 232.12 511.13 232.12C512.326 232.12 513.391 232.381 514.327 232.902C515.262 233.423 515.99 234.159 516.512 235.11C517.033 236.045 517.294 237.126 517.294 238.353ZM514.557 237.525C514.541 236.559 514.196 235.785 513.522 235.202C512.847 234.619 512.011 234.328 511.015 234.328C510.11 234.328 509.336 234.619 508.692 235.202C508.048 235.769 507.664 236.544 507.542 237.525H514.557ZM522.266 234.167C522.649 233.523 523.155 233.025 523.784 232.672C524.428 232.304 525.187 232.12 526.061 232.12V234.834H525.394C524.367 234.834 523.585 235.095 523.048 235.616C522.527 236.137 522.266 237.042 522.266 238.33V245H519.644V232.327H522.266V234.167ZM539.649 232.327L531.875 250.957H529.161L531.737 244.793L526.746 232.327H529.667L533.232 241.987L536.935 232.327H539.649ZM564.668 235.57V237.778H547.418V235.57H564.668ZM578.505 245.207C577.508 245.207 576.611 245.031 575.814 244.678C575.032 244.31 574.411 243.819 573.951 243.206C573.491 242.577 573.246 241.88 573.215 241.113H575.929C575.975 241.65 576.228 242.102 576.688 242.47C577.163 242.823 577.754 242.999 578.459 242.999C579.195 242.999 579.762 242.861 580.161 242.585C580.575 242.294 580.782 241.926 580.782 241.481C580.782 241.006 580.552 240.653 580.092 240.423C579.647 240.193 578.934 239.94 577.953 239.664C577.002 239.403 576.228 239.15 575.63 238.905C575.032 238.66 574.511 238.284 574.066 237.778C573.637 237.272 573.422 236.605 573.422 235.777C573.422 235.102 573.621 234.489 574.02 233.937C574.419 233.37 574.986 232.925 575.722 232.603C576.473 232.281 577.332 232.12 578.298 232.12C579.739 232.12 580.897 232.488 581.771 233.224C582.66 233.945 583.136 234.934 583.197 236.191H580.575C580.529 235.624 580.299 235.171 579.885 234.834C579.471 234.497 578.911 234.328 578.206 234.328C577.516 234.328 576.987 234.458 576.619 234.719C576.251 234.98 576.067 235.325 576.067 235.754C576.067 236.091 576.19 236.375 576.435 236.605C576.68 236.835 576.979 237.019 577.332 237.157C577.685 237.28 578.206 237.441 578.896 237.64C579.816 237.885 580.567 238.138 581.15 238.399C581.748 238.644 582.262 239.012 582.691 239.503C583.12 239.994 583.343 240.645 583.358 241.458C583.358 242.179 583.159 242.823 582.76 243.39C582.361 243.957 581.794 244.402 581.058 244.724C580.337 245.046 579.486 245.207 578.505 245.207ZM589.02 234.466V241.481C589.02 241.956 589.128 242.301 589.342 242.516C589.572 242.715 589.956 242.815 590.492 242.815H592.102V245H590.032C588.852 245 587.947 244.724 587.318 244.172C586.69 243.62 586.375 242.723 586.375 241.481V234.466H584.88V232.327H586.375V229.176H589.02V232.327H592.102V234.466H589.02ZM596.911 234.167C597.294 233.523 597.8 233.025 598.429 232.672C599.073 232.304 599.832 232.12 600.706 232.12V234.834H600.039C599.012 234.834 598.23 235.095 597.693 235.616C597.172 236.137 596.911 237.042 596.911 238.33V245H594.289V232.327H596.911V234.167ZM602.012 238.606C602.012 237.333 602.273 236.206 602.794 235.225C603.331 234.244 604.051 233.485 604.956 232.948C605.876 232.396 606.888 232.12 607.992 232.12C608.989 232.12 609.855 232.319 610.591 232.718C611.342 233.101 611.94 233.584 612.385 234.167V232.327H615.03V245H612.385V243.114C611.94 243.712 611.335 244.21 610.568 244.609C609.801 245.008 608.927 245.207 607.946 245.207C606.857 245.207 605.861 244.931 604.956 244.379C604.051 243.812 603.331 243.03 602.794 242.033C602.273 241.021 602.012 239.879 602.012 238.606ZM612.385 238.652C612.385 237.778 612.201 237.019 611.833 236.375C611.48 235.731 611.013 235.24 610.43 234.903C609.847 234.566 609.219 234.397 608.544 234.397C607.869 234.397 607.241 234.566 606.658 234.903C606.075 235.225 605.6 235.708 605.232 236.352C604.879 236.981 604.703 237.732 604.703 238.606C604.703 239.48 604.879 240.247 605.232 240.906C605.6 241.565 606.075 242.071 606.658 242.424C607.256 242.761 607.885 242.93 608.544 242.93C609.219 242.93 609.847 242.761 610.43 242.424C611.013 242.087 611.48 241.596 611.833 240.952C612.201 240.293 612.385 239.526 612.385 238.652ZM619.578 230.648C619.103 230.648 618.704 230.487 618.382 230.165C618.06 229.843 617.899 229.444 617.899 228.969C617.899 228.494 618.06 228.095 618.382 227.773C618.704 227.451 619.103 227.29 619.578 227.29C620.038 227.29 620.429 227.451 620.751 227.773C621.073 228.095 621.234 228.494 621.234 228.969C621.234 229.444 621.073 229.843 620.751 230.165C620.429 230.487 620.038 230.648 619.578 230.648ZM620.866 232.327V245H618.244V232.327H620.866ZM629.184 232.12C630.166 232.12 631.032 232.319 631.783 232.718C632.55 233.101 633.148 233.584 633.577 234.167V232.327H636.222V245.207C636.222 246.372 635.977 247.407 635.486 248.312C634.996 249.232 634.283 249.953 633.347 250.474C632.427 250.995 631.323 251.256 630.035 251.256C628.318 251.256 626.892 250.85 625.757 250.037C624.623 249.24 623.979 248.151 623.825 246.771H626.424C626.624 247.43 627.045 247.959 627.689 248.358C628.349 248.772 629.131 248.979 630.035 248.979C631.093 248.979 631.944 248.657 632.588 248.013C633.248 247.369 633.577 246.434 633.577 245.207V243.091C633.133 243.689 632.527 244.195 631.76 244.609C631.009 245.008 630.15 245.207 629.184 245.207C628.08 245.207 627.068 244.931 626.148 244.379C625.244 243.812 624.523 243.03 623.986 242.033C623.465 241.021 623.204 239.879 623.204 238.606C623.204 237.333 623.465 236.206 623.986 235.225C624.523 234.244 625.244 233.485 626.148 232.948C627.068 232.396 628.08 232.12 629.184 232.12ZM633.577 238.652C633.577 237.778 633.393 237.019 633.025 236.375C632.673 235.731 632.205 235.24 631.622 234.903C631.04 234.566 630.411 234.397 629.736 234.397C629.062 234.397 628.433 234.566 627.85 234.903C627.268 235.225 626.792 235.708 626.424 236.352C626.072 236.981 625.895 237.732 625.895 238.606C625.895 239.48 626.072 240.247 626.424 240.906C626.792 241.565 627.268 242.071 627.85 242.424C628.448 242.761 629.077 242.93 629.736 242.93C630.411 242.93 631.04 242.761 631.622 242.424C632.205 242.087 632.673 241.596 633.025 240.952C633.393 240.293 633.577 239.526 633.577 238.652ZM645.991 232.12C646.957 232.12 647.816 232.327 648.567 232.741C649.334 233.155 649.932 233.768 650.361 234.581C650.806 235.394 651.028 236.375 651.028 237.525V245H648.429V237.916C648.429 236.781 648.146 235.915 647.578 235.317C647.011 234.704 646.237 234.397 645.255 234.397C644.274 234.397 643.492 234.704 642.909 235.317C642.342 235.915 642.058 236.781 642.058 237.916V245H639.436V227.98H642.058V233.799C642.503 233.262 643.063 232.848 643.737 232.557C644.427 232.266 645.179 232.12 645.991 232.12ZM657.202 234.466V241.481C657.202 241.956 657.309 242.301 657.524 242.516C657.754 242.715 658.137 242.815 658.674 242.815H660.284V245H658.214C657.033 245 656.128 244.724 655.5 244.172C654.871 243.62 654.557 242.723 654.557 241.481V234.466H653.062V232.327H654.557V229.176H657.202V232.327H660.284V234.466H657.202ZM673.528 234.466H671.182V245H668.537V234.466H667.042V232.327H668.537V231.43C668.537 229.973 668.92 228.915 669.687 228.256C670.469 227.581 671.688 227.244 673.344 227.244V229.429C672.547 229.429 671.987 229.582 671.665 229.889C671.343 230.18 671.182 230.694 671.182 231.43V232.327H673.528V234.466ZM678.244 234.167C678.627 233.523 679.133 233.025 679.762 232.672C680.406 232.304 681.165 232.12 682.039 232.12V234.834H681.372C680.344 234.834 679.562 235.095 679.026 235.616C678.504 236.137 678.244 237.042 678.244 238.33V245H675.622V232.327H678.244V234.167ZM689.716 245.207C688.52 245.207 687.439 244.939 686.473 244.402C685.507 243.85 684.748 243.083 684.196 242.102C683.644 241.105 683.368 239.955 683.368 238.652C683.368 237.364 683.652 236.222 684.219 235.225C684.786 234.228 685.561 233.462 686.542 232.925C687.523 232.388 688.62 232.12 689.831 232.12C691.042 232.12 692.139 232.388 693.12 232.925C694.101 233.462 694.876 234.228 695.443 235.225C696.01 236.222 696.294 237.364 696.294 238.652C696.294 239.94 696.003 241.082 695.42 242.079C694.837 243.076 694.04 243.85 693.028 244.402C692.031 244.939 690.927 245.207 689.716 245.207ZM689.716 242.93C690.391 242.93 691.019 242.769 691.602 242.447C692.2 242.125 692.683 241.642 693.051 240.998C693.419 240.354 693.603 239.572 693.603 238.652C693.603 237.732 693.427 236.958 693.074 236.329C692.721 235.685 692.254 235.202 691.671 234.88C691.088 234.558 690.46 234.397 689.785 234.397C689.11 234.397 688.482 234.558 687.899 234.88C687.332 235.202 686.879 235.685 686.542 236.329C686.205 236.958 686.036 237.732 686.036 238.652C686.036 240.017 686.381 241.075 687.071 241.826C687.776 242.562 688.658 242.93 689.716 242.93ZM713.997 232.12C714.994 232.12 715.883 232.327 716.665 232.741C717.462 233.155 718.083 233.768 718.528 234.581C718.988 235.394 719.218 236.375 719.218 237.525V245H716.619V237.916C716.619 236.781 716.335 235.915 715.768 235.317C715.201 234.704 714.426 234.397 713.445 234.397C712.464 234.397 711.682 234.704 711.099 235.317C710.532 235.915 710.248 236.781 710.248 237.916V245H707.649V237.916C707.649 236.781 707.365 235.915 706.798 235.317C706.231 234.704 705.456 234.397 704.475 234.397C703.494 234.397 702.712 234.704 702.129 235.317C701.562 235.915 701.278 236.781 701.278 237.916V245H698.656V232.327H701.278V233.776C701.707 233.255 702.252 232.848 702.911 232.557C703.57 232.266 704.276 232.12 705.027 232.12C706.039 232.12 706.944 232.335 707.741 232.764C708.538 233.193 709.152 233.814 709.581 234.627C709.964 233.86 710.562 233.255 711.375 232.81C712.188 232.35 713.062 232.12 713.997 232.12ZM739.477 232.327L731.703 250.957H728.989L731.565 244.793L726.574 232.327H729.495L733.06 241.987L736.763 232.327H739.477ZM746.723 245.207C745.527 245.207 744.446 244.939 743.48 244.402C742.514 243.85 741.755 243.083 741.203 242.102C740.651 241.105 740.375 239.955 740.375 238.652C740.375 237.364 740.658 236.222 741.226 235.225C741.793 234.228 742.567 233.462 743.549 232.925C744.53 232.388 745.626 232.12 746.838 232.12C748.049 232.12 749.145 232.388 750.127 232.925C751.108 233.462 751.882 234.228 752.45 235.225C753.017 236.222 753.301 237.364 753.301 238.652C753.301 239.94 753.009 241.082 752.427 242.079C751.844 243.076 751.047 243.85 750.035 244.402C749.038 244.939 747.934 245.207 746.723 245.207ZM746.723 242.93C747.397 242.93 748.026 242.769 748.609 242.447C749.207 242.125 749.69 241.642 750.058 240.998C750.426 240.354 750.61 239.572 750.61 238.652C750.61 237.732 750.433 236.958 750.081 236.329C749.728 235.685 749.26 235.202 748.678 234.88C748.095 234.558 747.466 234.397 746.792 234.397C746.117 234.397 745.488 234.558 744.906 234.88C744.338 235.202 743.886 235.685 743.549 236.329C743.211 236.958 743.043 237.732 743.043 238.652C743.043 240.017 743.388 241.075 744.078 241.826C744.783 242.562 745.665 242.93 746.723 242.93ZM767.14 232.327V245H764.518V243.505C764.104 244.026 763.559 244.44 762.885 244.747C762.225 245.038 761.52 245.184 760.769 245.184C759.772 245.184 758.875 244.977 758.078 244.563C757.296 244.149 756.675 243.536 756.215 242.723C755.77 241.91 755.548 240.929 755.548 239.779V232.327H758.147V239.388C758.147 240.523 758.43 241.397 758.998 242.01C759.565 242.608 760.339 242.907 761.321 242.907C762.302 242.907 763.076 242.608 763.644 242.01C764.226 241.397 764.518 240.523 764.518 239.388V232.327H767.14ZM772.991 234.167C773.374 233.523 773.88 233.025 774.509 232.672C775.153 232.304 775.912 232.12 776.786 232.12V234.834H776.119C775.092 234.834 774.31 235.095 773.773 235.616C773.252 236.137 772.991 237.042 772.991 238.33V245H770.369V232.327H772.991V234.167ZM789.311 245.207C788.314 245.207 787.417 245.031 786.62 244.678C785.838 244.31 785.217 243.819 784.757 243.206C784.297 242.577 784.052 241.88 784.021 241.113H786.735C786.781 241.65 787.034 242.102 787.494 242.47C787.969 242.823 788.56 242.999 789.265 242.999C790.001 242.999 790.568 242.861 790.967 242.585C791.381 242.294 791.588 241.926 791.588 241.481C791.588 241.006 791.358 240.653 790.898 240.423C790.453 240.193 789.74 239.94 788.759 239.664C787.808 239.403 787.034 239.15 786.436 238.905C785.838 238.66 785.317 238.284 784.872 237.778C784.443 237.272 784.228 236.605 784.228 235.777C784.228 235.102 784.427 234.489 784.826 233.937C785.225 233.37 785.792 232.925 786.528 232.603C787.279 232.281 788.138 232.12 789.104 232.12C790.545 232.12 791.703 232.488 792.577 233.224C793.466 233.945 793.942 234.934 794.003 236.191H791.381C791.335 235.624 791.105 235.171 790.691 234.834C790.277 234.497 789.717 234.328 789.012 234.328C788.322 234.328 787.793 234.458 787.425 234.719C787.057 234.98 786.873 235.325 786.873 235.754C786.873 236.091 786.996 236.375 787.241 236.605C787.486 236.835 787.785 237.019 788.138 237.157C788.491 237.28 789.012 237.441 789.702 237.64C790.622 237.885 791.373 238.138 791.956 238.399C792.554 238.644 793.068 239.012 793.497 239.503C793.926 239.994 794.149 240.645 794.164 241.458C794.164 242.179 793.965 242.823 793.566 243.39C793.167 243.957 792.6 244.402 791.864 244.724C791.143 245.046 790.292 245.207 789.311 245.207ZM799.389 234.19C799.834 233.607 800.439 233.117 801.206 232.718C801.973 232.319 802.839 232.12 803.805 232.12C804.909 232.12 805.913 232.396 806.818 232.948C807.738 233.485 808.459 234.244 808.98 235.225C809.501 236.206 809.762 237.333 809.762 238.606C809.762 239.879 809.501 241.021 808.98 242.033C808.459 243.03 807.738 243.812 806.818 244.379C805.913 244.931 804.909 245.207 803.805 245.207C802.839 245.207 801.98 245.015 801.229 244.632C800.478 244.233 799.864 243.743 799.389 243.16V251.026H796.767V232.327H799.389V234.19ZM807.094 238.606C807.094 237.732 806.91 236.981 806.542 236.352C806.189 235.708 805.714 235.225 805.116 234.903C804.533 234.566 803.905 234.397 803.23 234.397C802.571 234.397 801.942 234.566 801.344 234.903C800.761 235.24 800.286 235.731 799.918 236.375C799.565 237.019 799.389 237.778 799.389 238.652C799.389 239.526 799.565 240.293 799.918 240.952C800.286 241.596 800.761 242.087 801.344 242.424C801.942 242.761 802.571 242.93 803.23 242.93C803.905 242.93 804.533 242.761 805.116 242.424C805.714 242.071 806.189 241.565 806.542 240.906C806.91 240.247 807.094 239.48 807.094 238.606ZM814.747 234.167C815.13 233.523 815.636 233.025 816.265 232.672C816.909 232.304 817.668 232.12 818.542 232.12V234.834H817.875C816.848 234.834 816.066 235.095 815.529 235.616C815.008 236.137 814.747 237.042 814.747 238.33V245H812.125V232.327H814.747V234.167ZM832.337 238.353C832.337 238.828 832.306 239.258 832.245 239.641H822.562C822.639 240.653 823.014 241.466 823.689 242.079C824.364 242.692 825.192 242.999 826.173 242.999C827.584 242.999 828.58 242.409 829.163 241.228H831.992C831.609 242.393 830.911 243.352 829.899 244.103C828.902 244.839 827.66 245.207 826.173 245.207C824.962 245.207 823.873 244.939 822.907 244.402C821.956 243.85 821.205 243.083 820.653 242.102C820.116 241.105 819.848 239.955 819.848 238.652C819.848 237.349 820.109 236.206 820.63 235.225C821.167 234.228 821.91 233.462 822.861 232.925C823.827 232.388 824.931 232.12 826.173 232.12C827.369 232.12 828.435 232.381 829.37 232.902C830.305 233.423 831.034 234.159 831.555 235.11C832.076 236.045 832.337 237.126 832.337 238.353ZM829.6 237.525C829.585 236.559 829.24 235.785 828.565 235.202C827.89 234.619 827.055 234.328 826.058 234.328C825.153 234.328 824.379 234.619 823.735 235.202C823.091 235.769 822.708 236.544 822.585 237.525H829.6ZM833.813 238.606C833.813 237.333 834.074 236.206 834.595 235.225C835.132 234.244 835.853 233.485 836.757 232.948C837.677 232.396 838.689 232.12 839.793 232.12C840.79 232.12 841.656 232.319 842.392 232.718C843.144 233.101 843.742 233.584 844.186 234.167V232.327H846.831V245H844.186V243.114C843.742 243.712 843.136 244.21 842.369 244.609C841.603 245.008 840.729 245.207 839.747 245.207C838.659 245.207 837.662 244.931 836.757 244.379C835.853 243.812 835.132 243.03 834.595 242.033C834.074 241.021 833.813 239.879 833.813 238.606ZM844.186 238.652C844.186 237.778 844.002 237.019 843.634 236.375C843.282 235.731 842.814 235.24 842.231 234.903C841.649 234.566 841.02 234.397 840.345 234.397C839.671 234.397 839.042 234.566 838.459 234.903C837.877 235.225 837.401 235.708 837.033 236.352C836.681 236.981 836.504 237.732 836.504 238.606C836.504 239.48 836.681 240.247 837.033 240.906C837.401 241.565 837.877 242.071 838.459 242.424C839.057 242.761 839.686 242.93 840.345 242.93C841.02 242.93 841.649 242.761 842.231 242.424C842.814 242.087 843.282 241.596 843.634 240.952C844.002 240.293 844.186 239.526 844.186 238.652ZM849.171 238.606C849.171 237.333 849.432 236.206 849.953 235.225C850.49 234.244 851.211 233.485 852.115 232.948C853.035 232.396 854.055 232.12 855.174 232.12C856.002 232.12 856.815 232.304 857.612 232.672C858.425 233.025 859.069 233.5 859.544 234.098V227.98H862.189V245H859.544V243.091C859.115 243.704 858.517 244.21 857.75 244.609C856.999 245.008 856.133 245.207 855.151 245.207C854.047 245.207 853.035 244.931 852.115 244.379C851.211 243.812 850.49 243.03 849.953 242.033C849.432 241.021 849.171 239.879 849.171 238.606ZM859.544 238.652C859.544 237.778 859.36 237.019 858.992 236.375C858.64 235.731 858.172 235.24 857.589 234.903C857.007 234.566 856.378 234.397 855.703 234.397C855.029 234.397 854.4 234.566 853.817 234.903C853.235 235.225 852.759 235.708 852.391 236.352C852.039 236.981 851.862 237.732 851.862 238.606C851.862 239.48 852.039 240.247 852.391 240.906C852.759 241.565 853.235 242.071 853.817 242.424C854.415 242.761 855.044 242.93 855.703 242.93C856.378 242.93 857.007 242.761 857.589 242.424C858.172 242.087 858.64 241.596 858.992 240.952C859.36 240.293 859.544 239.526 859.544 238.652ZM870.003 245.207C869.006 245.207 868.109 245.031 867.312 244.678C866.53 244.31 865.909 243.819 865.449 243.206C864.989 242.577 864.744 241.88 864.713 241.113H867.427C867.473 241.65 867.726 242.102 868.186 242.47C868.661 242.823 869.252 242.999 869.957 242.999C870.693 242.999 871.26 242.861 871.659 242.585C872.073 242.294 872.28 241.926 872.28 241.481C872.28 241.006 872.05 240.653 871.59 240.423C871.145 240.193 870.432 239.94 869.451 239.664C868.5 239.403 867.726 239.15 867.128 238.905C866.53 238.66 866.009 238.284 865.564 237.778C865.135 237.272 864.92 236.605 864.92 235.777C864.92 235.102 865.119 234.489 865.518 233.937C865.917 233.37 866.484 232.925 867.22 232.603C867.971 232.281 868.83 232.12 869.796 232.12C871.237 232.12 872.395 232.488 873.269 233.224C874.158 233.945 874.634 234.934 874.695 236.191H872.073C872.027 235.624 871.797 235.171 871.383 234.834C870.969 234.497 870.409 234.328 869.704 234.328C869.014 234.328 868.485 234.458 868.117 234.719C867.749 234.98 867.565 235.325 867.565 235.754C867.565 236.091 867.688 236.375 867.933 236.605C868.178 236.835 868.477 237.019 868.83 237.157C869.183 237.28 869.704 237.441 870.394 237.64C871.314 237.885 872.065 238.138 872.648 238.399C873.246 238.644 873.76 239.012 874.189 239.503C874.618 239.994 874.841 240.645 874.856 241.458C874.856 242.179 874.657 242.823 874.258 243.39C873.859 243.957 873.292 244.402 872.556 244.724C871.835 245.046 870.984 245.207 870.003 245.207ZM884.014 232.12C884.98 232.12 885.839 232.327 886.59 232.741C887.357 233.155 887.955 233.768 888.384 234.581C888.829 235.394 889.051 236.375 889.051 237.525V245H886.452V237.916C886.452 236.781 886.169 235.915 885.601 235.317C885.034 234.704 884.26 234.397 883.278 234.397C882.297 234.397 881.515 234.704 880.932 235.317C880.365 235.915 880.081 236.781 880.081 237.916V245H877.459V227.98H880.081V233.799C880.526 233.262 881.086 232.848 881.76 232.557C882.45 232.266 883.202 232.12 884.014 232.12ZM903.781 238.353C903.781 238.828 903.75 239.258 903.689 239.641H894.006C894.082 240.653 894.458 241.466 895.133 242.079C895.807 242.692 896.635 242.999 897.617 242.999C899.027 242.999 900.024 242.409 900.607 241.228H903.436C903.052 242.393 902.355 243.352 901.343 244.103C900.346 244.839 899.104 245.207 897.617 245.207C896.405 245.207 895.317 244.939 894.351 244.402C893.4 243.85 892.649 243.083 892.097 242.102C891.56 241.105 891.292 239.955 891.292 238.652C891.292 237.349 891.552 236.206 892.074 235.225C892.61 234.228 893.354 233.462 894.305 232.925C895.271 232.388 896.375 232.12 897.617 232.12C898.813 232.12 899.878 232.381 900.814 232.902C901.749 233.423 902.477 234.159 902.999 235.11C903.52 236.045 903.781 237.126 903.781 238.353ZM901.044 237.525C901.028 236.559 900.683 235.785 900.009 235.202C899.334 234.619 898.498 234.328 897.502 234.328C896.597 234.328 895.823 234.619 895.179 235.202C894.535 235.769 894.151 236.544 894.029 237.525H901.044ZM917.746 238.353C917.746 238.828 917.715 239.258 917.654 239.641H907.971C908.048 240.653 908.423 241.466 909.098 242.079C909.773 242.692 910.601 242.999 911.582 242.999C912.993 242.999 913.989 242.409 914.572 241.228H917.401C917.018 242.393 916.32 243.352 915.308 244.103C914.311 244.839 913.069 245.207 911.582 245.207C910.371 245.207 909.282 244.939 908.316 244.402C907.365 243.85 906.614 243.083 906.062 242.102C905.525 241.105 905.257 239.955 905.257 238.652C905.257 237.349 905.518 236.206 906.039 235.225C906.576 234.228 907.319 233.462 908.27 232.925C909.236 232.388 910.34 232.12 911.582 232.12C912.778 232.12 913.844 232.381 914.779 232.902C915.714 233.423 916.443 234.159 916.964 235.11C917.485 236.045 917.746 237.126 917.746 238.353ZM915.009 237.525C914.994 236.559 914.649 235.785 913.974 235.202C913.299 234.619 912.464 234.328 911.467 234.328C910.562 234.328 909.788 234.619 909.144 235.202C908.5 235.769 908.117 236.544 907.994 237.525H915.009ZM923.155 234.466V241.481C923.155 241.956 923.263 242.301 923.477 242.516C923.707 242.715 924.091 242.815 924.627 242.815H926.237V245H924.167C922.987 245 922.082 244.724 921.453 244.172C920.825 243.62 920.51 242.723 920.51 241.481V234.466H919.015V232.327H920.51V229.176H923.155V232.327H926.237V234.466H923.155ZM929.482 245.161C929.007 245.161 928.608 245 928.286 244.678C927.964 244.356 927.803 243.957 927.803 243.482C927.803 243.007 927.964 242.608 928.286 242.286C928.608 241.964 929.007 241.803 929.482 241.803C929.942 241.803 930.333 241.964 930.655 242.286C930.977 242.608 931.138 243.007 931.138 243.482C931.138 243.957 930.977 244.356 930.655 244.678C930.333 245 929.942 245.161 929.482 245.161Z" fill="white"/>
<path d="M326.858 259.086V261.179C327.423 261.23 327.927 261.361 328.37 261.571C328.813 261.776 329.189 262.017 329.497 262.292L328.643 263.181C328.382 262.948 328.099 262.763 327.796 262.628C327.497 262.488 327.185 262.402 326.858 262.369V265.274C327.385 265.451 327.857 265.664 328.272 265.911C328.692 266.158 329.023 266.473 329.266 266.856C329.513 267.234 329.637 267.705 329.637 268.27C329.637 268.741 329.532 269.18 329.322 269.586C329.112 269.992 328.799 270.333 328.384 270.608C327.973 270.879 327.465 271.054 326.858 271.133V273.191H325.843V271.175C325.171 271.128 324.581 270.974 324.072 270.713C323.563 270.452 323.146 270.165 322.819 269.852L323.659 268.907C323.962 269.192 324.291 269.427 324.646 269.614C325.001 269.801 325.4 269.91 325.843 269.943V266.436C324.952 266.137 324.284 265.771 323.841 265.337C323.402 264.898 323.183 264.352 323.183 263.699C323.183 263.274 323.283 262.882 323.484 262.523C323.689 262.164 323.99 261.865 324.387 261.627C324.784 261.384 325.269 261.235 325.843 261.179V259.086H326.858ZM326.858 266.807V269.887C327.665 269.719 328.069 269.217 328.069 268.382C328.069 268.032 327.983 267.733 327.81 267.486C327.637 267.234 327.32 267.008 326.858 266.807ZM325.843 262.39C325.498 262.451 325.222 262.584 325.017 262.789C324.812 262.994 324.709 263.26 324.709 263.587C324.709 263.876 324.784 264.124 324.933 264.329C325.082 264.53 325.386 264.728 325.843 264.924V262.39ZM416.734 269.985C417.224 269.985 417.614 269.899 417.903 269.726C418.192 269.549 418.337 269.306 418.337 268.998C418.337 268.797 418.295 268.627 418.211 268.487C418.127 268.342 417.959 268.212 417.707 268.095C417.455 267.974 417.072 267.848 416.559 267.717C416.074 267.591 415.647 267.442 415.278 267.269C414.914 267.096 414.632 266.872 414.431 266.597C414.23 266.322 414.13 265.967 414.13 265.533C414.13 265.108 414.249 264.737 414.487 264.42C414.725 264.103 415.066 263.855 415.509 263.678C415.957 263.501 416.482 263.412 417.084 263.412C417.705 263.412 418.246 263.494 418.708 263.657C419.17 263.82 419.564 264.023 419.891 264.266L419.233 265.253C418.944 265.062 418.626 264.905 418.281 264.784C417.94 264.663 417.555 264.602 417.126 264.602C416.627 264.602 416.267 264.677 416.048 264.826C415.833 264.975 415.726 265.174 415.726 265.421C415.726 265.603 415.78 265.757 415.887 265.883C415.999 266.004 416.19 266.119 416.461 266.226C416.732 266.329 417.114 266.45 417.609 266.59C418.09 266.721 418.507 266.875 418.862 267.052C419.221 267.229 419.499 267.465 419.695 267.759C419.896 268.048 419.996 268.426 419.996 268.893C419.996 269.425 419.842 269.861 419.534 270.202C419.231 270.538 418.829 270.788 418.33 270.951C417.835 271.11 417.303 271.189 416.734 271.189C416.048 271.189 415.455 271.091 414.956 270.895C414.457 270.694 414.037 270.445 413.696 270.146L414.529 269.194C414.818 269.427 415.15 269.619 415.523 269.768C415.896 269.913 416.3 269.985 416.734 269.985ZM423.602 267.808C423.635 268.312 423.742 268.725 423.924 269.047C424.106 269.364 424.344 269.598 424.638 269.747C424.937 269.896 425.264 269.971 425.618 269.971C425.982 269.971 426.318 269.915 426.626 269.803C426.934 269.691 427.245 269.532 427.557 269.327L428.236 270.265C427.891 270.545 427.487 270.769 427.025 270.937C426.563 271.105 426.069 271.189 425.541 271.189C424.776 271.189 424.127 271.026 423.595 270.699C423.068 270.372 422.667 269.917 422.391 269.334C422.116 268.751 421.978 268.076 421.978 267.311C421.978 266.569 422.114 265.906 422.384 265.323C422.655 264.735 423.042 264.271 423.546 263.93C424.05 263.585 424.652 263.412 425.352 263.412C426.01 263.412 426.575 263.561 427.046 263.86C427.522 264.159 427.889 264.583 428.145 265.134C428.407 265.68 428.537 266.338 428.537 267.108C428.537 267.234 428.533 267.36 428.523 267.486C428.519 267.607 428.512 267.715 428.502 267.808H423.602ZM425.366 264.574C424.876 264.574 424.47 264.749 424.148 265.099C423.831 265.449 423.647 265.995 423.595 266.737H427.018C427.004 266.042 426.855 265.507 426.57 265.134C426.29 264.761 425.889 264.574 425.366 264.574ZM430.555 271V263.608H431.906L432.025 264.567C432.333 264.189 432.697 263.902 433.117 263.706C433.537 263.51 433.969 263.412 434.412 263.412C435.103 263.412 435.618 263.606 435.959 263.993C436.304 264.376 436.477 264.915 436.477 265.61V271H434.909V266.387C434.909 265.958 434.883 265.612 434.832 265.351C434.781 265.09 434.678 264.901 434.524 264.784C434.375 264.667 434.151 264.609 433.852 264.609C433.614 264.609 433.388 264.66 433.173 264.763C432.958 264.866 432.762 265.001 432.585 265.169C432.408 265.332 432.254 265.507 432.123 265.694V271H430.555ZM443.149 260.465L444.717 260.64V271H443.338L443.226 270.09C442.974 270.44 442.673 270.711 442.323 270.902C441.973 271.093 441.581 271.189 441.147 271.189C440.513 271.189 439.99 271.028 439.579 270.706C439.169 270.379 438.863 269.924 438.662 269.341C438.466 268.753 438.368 268.074 438.368 267.304C438.368 266.553 438.485 265.885 438.718 265.302C438.952 264.714 439.285 264.252 439.719 263.916C440.153 263.58 440.676 263.412 441.287 263.412C441.675 263.412 442.022 263.482 442.33 263.622C442.638 263.757 442.911 263.956 443.149 264.217V260.465ZM441.7 264.616C441.173 264.616 440.762 264.835 440.468 265.274C440.174 265.708 440.027 266.385 440.027 267.304C440.027 267.934 440.088 268.447 440.209 268.844C440.331 269.236 440.506 269.525 440.734 269.712C440.963 269.894 441.238 269.985 441.56 269.985C441.915 269.985 442.223 269.882 442.484 269.677C442.746 269.472 442.967 269.224 443.149 268.935V265.435C442.967 265.174 442.755 264.973 442.512 264.833C442.27 264.688 441.999 264.616 441.7 264.616ZM462.908 267.262V265.974H468.41V267.262H462.908ZM456.244 267.262V265.974H461.746V267.262H456.244ZM475.391 269.901C475.736 269.901 476.058 269.843 476.357 269.726C476.655 269.605 476.94 269.448 477.211 269.257L477.939 270.265C477.617 270.54 477.225 270.764 476.763 270.937C476.305 271.105 475.832 271.189 475.342 271.189C474.586 271.189 473.939 271.03 473.403 270.713C472.866 270.391 472.455 269.941 472.171 269.362C471.886 268.783 471.744 268.109 471.744 267.339C471.744 266.588 471.886 265.918 472.171 265.33C472.46 264.737 472.875 264.271 473.417 263.93C473.958 263.585 474.609 263.412 475.37 263.412C475.874 263.412 476.338 263.487 476.763 263.636C477.187 263.785 477.577 264.007 477.932 264.301L477.211 265.288C476.921 265.087 476.625 264.936 476.322 264.833C476.023 264.726 475.715 264.672 475.398 264.672C474.814 264.672 474.336 264.887 473.963 265.316C473.594 265.745 473.41 266.42 473.41 267.339C473.41 267.955 473.494 268.452 473.662 268.83C473.834 269.203 474.07 269.476 474.369 269.649C474.667 269.817 475.008 269.901 475.391 269.901ZM482.77 269.985C483.26 269.985 483.65 269.899 483.939 269.726C484.228 269.549 484.373 269.306 484.373 268.998C484.373 268.797 484.331 268.627 484.247 268.487C484.163 268.342 483.995 268.212 483.743 268.095C483.491 267.974 483.108 267.848 482.595 267.717C482.11 267.591 481.683 267.442 481.314 267.269C480.95 267.096 480.668 266.872 480.467 266.597C480.266 266.322 480.166 265.967 480.166 265.533C480.166 265.108 480.285 264.737 480.523 264.42C480.761 264.103 481.102 263.855 481.545 263.678C481.993 263.501 482.518 263.412 483.12 263.412C483.741 263.412 484.282 263.494 484.744 263.657C485.206 263.82 485.6 264.023 485.927 264.266L485.269 265.253C484.98 265.062 484.662 264.905 484.317 264.784C483.976 264.663 483.591 264.602 483.162 264.602C482.663 264.602 482.303 264.677 482.084 264.826C481.869 264.975 481.762 265.174 481.762 265.421C481.762 265.603 481.816 265.757 481.923 265.883C482.035 266.004 482.226 266.119 482.497 266.226C482.768 266.329 483.15 266.45 483.645 266.59C484.126 266.721 484.543 266.875 484.898 267.052C485.257 267.229 485.535 267.465 485.731 267.759C485.932 268.048 486.032 268.426 486.032 268.893C486.032 269.425 485.878 269.861 485.57 270.202C485.267 270.538 484.865 270.788 484.366 270.951C483.871 271.11 483.339 271.189 482.77 271.189C482.084 271.189 481.491 271.091 480.992 270.895C480.493 270.694 480.073 270.445 479.732 270.146L480.565 269.194C480.854 269.427 481.186 269.619 481.559 269.768C481.932 269.913 482.336 269.985 482.77 269.985ZM494.812 263.608L492.208 271H490.374L487.77 263.608H489.45L491.326 269.698L493.209 263.608H494.812ZM509.34 260.465C509.792 260.465 510.196 260.505 510.551 260.584C510.91 260.659 511.241 260.761 511.545 260.892L511.083 261.977C510.835 261.874 510.576 261.8 510.306 261.753C510.04 261.706 509.769 261.683 509.494 261.683C509.008 261.683 508.649 261.776 508.416 261.963C508.182 262.145 508.066 262.434 508.066 262.831V264.14H510.537L510.369 265.295H508.066V271H506.505V265.295H504.825V264.14H506.505V262.817C506.505 262.35 506.621 261.942 506.855 261.592C507.093 261.237 507.424 260.962 507.849 260.766C508.273 260.565 508.77 260.465 509.34 260.465ZM517.139 264.14V269.852H519.148V271H513.359V269.852H515.571V265.295H513.429V264.14H517.139ZM516.047 260.437C516.355 260.437 516.603 260.533 516.789 260.724C516.981 260.911 517.076 261.142 517.076 261.417C517.076 261.702 516.981 261.94 516.789 262.131C516.603 262.322 516.355 262.418 516.047 262.418C515.749 262.418 515.504 262.322 515.312 262.131C515.121 261.94 515.025 261.702 515.025 261.417C515.025 261.142 515.121 260.911 515.312 260.724C515.504 260.533 515.749 260.437 516.047 260.437ZM524.603 260.64V268.984C524.603 269.325 524.705 269.567 524.911 269.712C525.121 269.852 525.391 269.922 525.723 269.922C525.937 269.922 526.14 269.899 526.332 269.852C526.523 269.805 526.71 269.747 526.892 269.677L527.291 270.769C527.071 270.881 526.801 270.979 526.479 271.063C526.161 271.147 525.797 271.189 525.387 271.189C524.645 271.189 524.066 270.981 523.651 270.566C523.24 270.146 523.035 269.572 523.035 268.844V261.795H520.802V260.64H524.603ZM530.911 267.808C530.944 268.312 531.051 268.725 531.233 269.047C531.415 269.364 531.653 269.598 531.947 269.747C532.246 269.896 532.573 269.971 532.927 269.971C533.291 269.971 533.627 269.915 533.935 269.803C534.243 269.691 534.554 269.532 534.866 269.327L535.545 270.265C535.2 270.545 534.796 270.769 534.334 270.937C533.872 271.105 533.378 271.189 532.85 271.189C532.085 271.189 531.436 271.026 530.904 270.699C530.377 270.372 529.976 269.917 529.7 269.334C529.425 268.751 529.287 268.076 529.287 267.311C529.287 266.569 529.423 265.906 529.693 265.323C529.964 264.735 530.351 264.271 530.855 263.93C531.359 263.585 531.961 263.412 532.661 263.412C533.319 263.412 533.884 263.561 534.355 263.86C534.831 264.159 535.198 264.583 535.454 265.134C535.716 265.68 535.846 266.338 535.846 267.108C535.846 267.234 535.842 267.36 535.832 267.486C535.828 267.607 535.821 267.715 535.811 267.808H530.911ZM532.675 264.574C532.185 264.574 531.779 264.749 531.457 265.099C531.14 265.449 530.956 265.995 530.904 266.737H534.327C534.313 266.042 534.164 265.507 533.879 265.134C533.599 264.761 533.198 264.574 532.675 264.574ZM539.46 269.831C539.46 269.579 539.518 269.353 539.635 269.152C539.756 268.947 539.919 268.783 540.125 268.662C540.33 268.541 540.559 268.48 540.811 268.48C541.067 268.48 541.298 268.541 541.504 268.662C541.709 268.783 541.87 268.947 541.987 269.152C542.108 269.353 542.169 269.579 542.169 269.831C542.169 270.078 542.108 270.307 541.987 270.517C541.87 270.722 541.709 270.886 541.504 271.007C541.298 271.128 541.067 271.189 540.811 271.189C540.559 271.189 540.33 271.128 540.125 271.007C539.919 270.886 539.756 270.722 539.635 270.517C539.518 270.307 539.46 270.078 539.46 269.831ZM549.681 269.901C550.027 269.901 550.349 269.843 550.647 269.726C550.946 269.605 551.231 269.448 551.501 269.257L552.229 270.265C551.907 270.54 551.515 270.764 551.053 270.937C550.596 271.105 550.122 271.189 549.632 271.189C548.876 271.189 548.23 271.03 547.693 270.713C547.157 270.391 546.746 269.941 546.461 269.362C546.177 268.783 546.034 268.109 546.034 267.339C546.034 266.588 546.177 265.918 546.461 265.33C546.751 264.737 547.166 264.271 547.707 263.93C548.249 263.585 548.9 263.412 549.66 263.412C550.164 263.412 550.629 263.487 551.053 263.636C551.478 263.785 551.868 264.007 552.222 264.301L551.501 265.288C551.212 265.087 550.916 264.936 550.612 264.833C550.314 264.726 550.006 264.672 549.688 264.672C549.105 264.672 548.627 264.887 548.253 265.316C547.885 265.745 547.7 266.42 547.7 267.339C547.7 267.955 547.784 268.452 547.952 268.83C548.125 269.203 548.361 269.476 548.659 269.649C548.958 269.817 549.299 269.901 549.681 269.901ZM557.061 269.985C557.551 269.985 557.941 269.899 558.23 269.726C558.519 269.549 558.664 269.306 558.664 268.998C558.664 268.797 558.622 268.627 558.538 268.487C558.454 268.342 558.286 268.212 558.034 268.095C557.782 267.974 557.399 267.848 556.886 267.717C556.401 267.591 555.974 267.442 555.605 267.269C555.241 267.096 554.959 266.872 554.758 266.597C554.557 266.322 554.457 265.967 554.457 265.533C554.457 265.108 554.576 264.737 554.814 264.42C555.052 264.103 555.393 263.855 555.836 263.678C556.284 263.501 556.809 263.412 557.411 263.412C558.032 263.412 558.573 263.494 559.035 263.657C559.497 263.82 559.891 264.023 560.218 264.266L559.56 265.253C559.271 265.062 558.953 264.905 558.608 264.784C558.267 264.663 557.882 264.602 557.453 264.602C556.954 264.602 556.594 264.677 556.375 264.826C556.16 264.975 556.053 265.174 556.053 265.421C556.053 265.603 556.107 265.757 556.214 265.883C556.326 266.004 556.517 266.119 556.788 266.226C557.059 266.329 557.441 266.45 557.936 266.59C558.417 266.721 558.834 266.875 559.189 267.052C559.548 267.229 559.826 267.465 560.022 267.759C560.223 268.048 560.323 268.426 560.323 268.893C560.323 269.425 560.169 269.861 559.861 270.202C559.558 270.538 559.156 270.788 558.657 270.951C558.162 271.11 557.63 271.189 557.061 271.189C556.375 271.189 555.782 271.091 555.283 270.895C554.784 270.694 554.364 270.445 554.023 270.146L554.856 269.194C555.145 269.427 555.477 269.619 555.85 269.768C556.223 269.913 556.627 269.985 557.061 269.985ZM569.102 263.608L566.498 271H564.664L562.06 263.608H563.74L565.616 269.698L567.499 263.608H569.102ZM586.726 267.262V265.974H592.228V267.262H586.726ZM580.062 267.262V265.974H585.564V267.262H580.062ZM596.948 267.808C596.98 268.312 597.088 268.725 597.27 269.047C597.452 269.364 597.69 269.598 597.984 269.747C598.282 269.896 598.609 269.971 598.964 269.971C599.328 269.971 599.664 269.915 599.972 269.803C600.28 269.691 600.59 269.532 600.903 269.327L601.582 270.265C601.236 270.545 600.833 270.769 600.371 270.937C599.909 271.105 599.414 271.189 598.887 271.189C598.121 271.189 597.473 271.026 596.941 270.699C596.413 270.372 596.012 269.917 595.737 269.334C595.461 268.751 595.324 268.076 595.324 267.311C595.324 266.569 595.459 265.906 595.73 265.323C596 264.735 596.388 264.271 596.892 263.93C597.396 263.585 597.998 263.412 598.698 263.412C599.356 263.412 599.92 263.561 600.392 263.86C600.868 264.159 601.234 264.583 601.491 265.134C601.752 265.68 601.883 266.338 601.883 267.108C601.883 267.234 601.878 267.36 601.869 267.486C601.864 267.607 601.857 267.715 601.848 267.808H596.948ZM598.712 264.574C598.222 264.574 597.816 264.749 597.494 265.099C597.176 265.449 596.992 265.995 596.941 266.737H600.364C600.35 266.042 600.2 265.507 599.916 265.134C599.636 264.761 599.234 264.574 598.712 264.574ZM603.9 271V263.608H605.251L605.37 264.567C605.678 264.189 606.042 263.902 606.462 263.706C606.882 263.51 607.314 263.412 607.757 263.412C608.448 263.412 608.963 263.606 609.304 263.993C609.649 264.376 609.822 264.915 609.822 265.61V271H608.254V266.387C608.254 265.958 608.228 265.612 608.177 265.351C608.126 265.09 608.023 264.901 607.869 264.784C607.72 264.667 607.496 264.609 607.197 264.609C606.959 264.609 606.733 264.66 606.518 264.763C606.303 264.866 606.107 265.001 605.93 265.169C605.753 265.332 605.599 265.507 605.468 265.694V271H603.9ZM618.63 263.608L616.026 271H614.192L611.588 263.608H613.268L615.144 269.698L617.027 263.608H618.63ZM630.26 269.831C630.26 269.579 630.318 269.353 630.435 269.152C630.556 268.947 630.719 268.783 630.925 268.662C631.13 268.541 631.359 268.48 631.611 268.48C631.867 268.48 632.098 268.541 632.304 268.662C632.509 268.783 632.67 268.947 632.787 269.152C632.908 269.353 632.969 269.579 632.969 269.831C632.969 270.078 632.908 270.307 632.787 270.517C632.67 270.722 632.509 270.886 632.304 271.007C632.098 271.128 631.867 271.189 631.611 271.189C631.359 271.189 631.13 271.128 630.925 271.007C630.719 270.886 630.556 270.722 630.435 270.517C630.318 270.307 630.26 270.078 630.26 269.831ZM637.527 272.491L636.281 271.931L642.231 259.632L643.463 260.213L637.527 272.491ZM648.736 269.901C649.081 269.901 649.403 269.843 649.702 269.726C650 269.605 650.285 269.448 650.556 269.257L651.284 270.265C650.962 270.54 650.57 270.764 650.108 270.937C649.65 271.105 649.177 271.189 648.687 271.189C647.931 271.189 647.284 271.03 646.748 270.713C646.211 270.391 645.8 269.941 645.516 269.362C645.231 268.783 645.089 268.109 645.089 267.339C645.089 266.588 645.231 265.918 645.516 265.33C645.805 264.737 646.22 264.271 646.762 263.93C647.303 263.585 647.954 263.412 648.715 263.412C649.219 263.412 649.683 263.487 650.108 263.636C650.532 263.785 650.922 264.007 651.277 264.301L650.556 265.288C650.266 265.087 649.97 264.936 649.667 264.833C649.368 264.726 649.06 264.672 648.743 264.672C648.159 264.672 647.681 264.887 647.308 265.316C646.939 265.745 646.755 266.42 646.755 267.339C646.755 267.955 646.839 268.452 647.007 268.83C647.179 269.203 647.415 269.476 647.714 269.649C648.012 269.817 648.353 269.901 648.736 269.901ZM656.388 263.412C657.112 263.412 657.721 263.573 658.215 263.895C658.71 264.217 659.083 264.667 659.335 265.246C659.592 265.825 659.72 266.506 659.72 267.29C659.72 268.069 659.59 268.753 659.328 269.341C659.072 269.924 658.694 270.379 658.194 270.706C657.7 271.028 657.095 271.189 656.381 271.189C655.667 271.189 655.061 271.033 654.561 270.72C654.067 270.403 653.689 269.952 653.427 269.369C653.171 268.786 653.042 268.097 653.042 267.304C653.042 266.534 653.171 265.857 653.427 265.274C653.689 264.691 654.069 264.236 654.568 263.909C655.068 263.578 655.674 263.412 656.388 263.412ZM656.388 264.63C655.824 264.63 655.399 264.847 655.114 265.281C654.83 265.71 654.687 266.385 654.687 267.304C654.687 268.219 654.827 268.893 655.107 269.327C655.392 269.761 655.817 269.978 656.381 269.978C656.946 269.978 657.368 269.761 657.648 269.327C657.933 268.893 658.075 268.214 658.075 267.29C658.075 266.38 657.935 265.71 657.655 265.281C657.375 264.847 656.953 264.63 656.388 264.63ZM661.682 271V263.608H663.033L663.152 264.567C663.46 264.189 663.824 263.902 664.244 263.706C664.664 263.51 665.095 263.412 665.539 263.412C666.229 263.412 666.745 263.606 667.086 263.993C667.431 264.376 667.604 264.915 667.604 265.61V271H666.036V266.387C666.036 265.958 666.01 265.612 665.959 265.351C665.907 265.09 665.805 264.901 665.651 264.784C665.501 264.667 665.277 264.609 664.979 264.609C664.741 264.609 664.514 264.66 664.3 264.763C664.085 264.866 663.889 265.001 663.712 265.169C663.534 265.332 663.38 265.507 663.25 265.694V271H661.682ZM674.43 260.465C674.883 260.465 675.287 260.505 675.641 260.584C676.001 260.659 676.332 260.761 676.635 260.892L676.173 261.977C675.926 261.874 675.667 261.8 675.396 261.753C675.13 261.706 674.86 261.683 674.584 261.683C674.099 261.683 673.74 261.776 673.506 261.963C673.273 262.145 673.156 262.434 673.156 262.831V264.14H675.627L675.459 265.295H673.156V271H671.595V265.295H669.915V264.14H671.595V262.817C671.595 262.35 671.712 261.942 671.945 261.592C672.183 261.237 672.515 260.962 672.939 260.766C673.364 260.565 673.861 260.465 674.43 260.465ZM682.23 264.14V269.852H684.239V271H678.45V269.852H680.662V265.295H678.52V264.14H682.23ZM681.138 260.437C681.446 260.437 681.693 260.533 681.88 260.724C682.071 260.911 682.167 261.142 682.167 261.417C682.167 261.702 682.071 261.94 681.88 262.131C681.693 262.322 681.446 262.418 681.138 262.418C680.839 262.418 680.594 262.322 680.403 262.131C680.212 261.94 680.116 261.702 680.116 261.417C680.116 261.142 680.212 260.911 680.403 260.724C680.594 260.533 680.839 260.437 681.138 260.437ZM692.668 262.67L693.088 263.972C692.794 264.07 692.47 264.135 692.115 264.168C691.765 264.201 691.373 264.217 690.939 264.217C691.383 264.413 691.716 264.665 691.94 264.973C692.164 265.276 692.276 265.65 692.276 266.093C692.276 266.574 692.16 267.003 691.926 267.381C691.693 267.759 691.359 268.055 690.925 268.27C690.491 268.485 689.971 268.592 689.364 268.592C689.15 268.592 688.963 268.583 688.804 268.564C688.65 268.545 688.499 268.515 688.349 268.473C688.256 268.538 688.177 268.627 688.111 268.739C688.051 268.846 688.02 268.961 688.02 269.082C688.02 269.231 688.081 269.362 688.202 269.474C688.328 269.581 688.576 269.635 688.944 269.635H690.232C690.76 269.635 691.224 269.726 691.625 269.908C692.031 270.085 692.349 270.33 692.577 270.643C692.811 270.951 692.927 271.301 692.927 271.693C692.927 272.43 692.61 273.002 691.975 273.408C691.341 273.814 690.426 274.017 689.231 274.017C688.387 274.017 687.724 273.931 687.243 273.758C686.763 273.585 686.424 273.329 686.228 272.988C686.032 272.647 685.934 272.23 685.934 271.735H687.341C687.341 271.992 687.39 272.204 687.488 272.372C687.591 272.54 687.78 272.666 688.055 272.75C688.331 272.834 688.727 272.876 689.245 272.876C689.763 272.876 690.174 272.832 690.477 272.743C690.785 272.659 691.007 272.535 691.142 272.372C691.282 272.213 691.352 272.022 691.352 271.798C691.352 271.499 691.222 271.268 690.96 271.105C690.699 270.942 690.349 270.86 689.91 270.86H688.643C687.943 270.86 687.43 270.718 687.103 270.433C686.781 270.148 686.62 269.817 686.62 269.439C686.62 269.187 686.69 268.944 686.83 268.711C686.975 268.478 687.18 268.275 687.446 268.102C687.003 267.869 686.679 267.586 686.473 267.255C686.273 266.919 686.172 266.513 686.172 266.037C686.172 265.514 686.303 265.057 686.564 264.665C686.826 264.273 687.187 263.967 687.649 263.748C688.116 263.529 688.653 263.419 689.259 263.419C689.852 263.419 690.347 263.389 690.743 263.328C691.14 263.263 691.485 263.172 691.779 263.055C692.078 262.938 692.374 262.81 692.668 262.67ZM689.273 264.497C688.774 264.497 688.398 264.639 688.146 264.924C687.894 265.204 687.768 265.57 687.768 266.023C687.768 266.49 687.897 266.865 688.153 267.15C688.415 267.43 688.795 267.57 689.294 267.57C689.756 267.57 690.109 267.435 690.351 267.164C690.599 266.893 690.722 266.508 690.722 266.009C690.722 265.505 690.601 265.127 690.358 264.875C690.116 264.623 689.754 264.497 689.273 264.497ZM696.296 269.831C696.296 269.579 696.354 269.353 696.471 269.152C696.592 268.947 696.756 268.783 696.961 268.662C697.166 268.541 697.395 268.48 697.647 268.48C697.904 268.48 698.135 268.541 698.34 268.662C698.545 268.783 698.706 268.947 698.823 269.152C698.944 269.353 699.005 269.579 699.005 269.831C699.005 270.078 698.944 270.307 698.823 270.517C698.706 270.722 698.545 270.886 698.34 271.007C698.135 271.128 697.904 271.189 697.647 271.189C697.395 271.189 697.166 271.128 696.961 271.007C696.756 270.886 696.592 270.722 696.471 270.517C696.354 270.307 696.296 270.078 696.296 269.831ZM708.085 263.608V269.446C708.085 270.365 707.894 271.128 707.511 271.735C707.133 272.342 706.578 272.825 705.845 273.184C705.113 273.548 704.219 273.826 703.164 274.017L702.912 272.813C703.645 272.673 704.282 272.479 704.823 272.232C705.365 271.985 705.782 271.646 706.076 271.217C706.37 270.788 706.517 270.232 706.517 269.551V264.756H703.598V263.608H708.085ZM706.86 259.989C707.164 259.989 707.411 260.082 707.602 260.269C707.794 260.456 707.889 260.689 707.889 260.969C707.889 261.249 707.794 261.485 707.602 261.676C707.411 261.867 707.164 261.963 706.86 261.963C706.557 261.963 706.31 261.867 706.118 261.676C705.932 261.485 705.838 261.249 705.838 260.969C705.838 260.689 705.932 260.456 706.118 260.269C706.31 260.082 706.557 259.989 706.86 259.989ZM713.897 269.985C714.387 269.985 714.777 269.899 715.066 269.726C715.355 269.549 715.5 269.306 715.5 268.998C715.5 268.797 715.458 268.627 715.374 268.487C715.29 268.342 715.122 268.212 714.87 268.095C714.618 267.974 714.235 267.848 713.722 267.717C713.237 267.591 712.81 267.442 712.441 267.269C712.077 267.096 711.795 266.872 711.594 266.597C711.393 266.322 711.293 265.967 711.293 265.533C711.293 265.108 711.412 264.737 711.65 264.42C711.888 264.103 712.229 263.855 712.672 263.678C713.12 263.501 713.645 263.412 714.247 263.412C714.868 263.412 715.409 263.494 715.871 263.657C716.333 263.82 716.727 264.023 717.054 264.266L716.396 265.253C716.107 265.062 715.789 264.905 715.444 264.784C715.103 264.663 714.718 264.602 714.289 264.602C713.79 264.602 713.43 264.677 713.211 264.826C712.996 264.975 712.889 265.174 712.889 265.421C712.889 265.603 712.943 265.757 713.05 265.883C713.162 266.004 713.353 266.119 713.624 266.226C713.895 266.329 714.277 266.45 714.772 266.59C715.253 266.721 715.67 266.875 716.025 267.052C716.384 267.229 716.662 267.465 716.858 267.759C717.059 268.048 717.159 268.426 717.159 268.893C717.159 269.425 717.005 269.861 716.697 270.202C716.394 270.538 715.992 270.788 715.493 270.951C714.998 271.11 714.466 271.189 713.897 271.189C713.211 271.189 712.618 271.091 712.119 270.895C711.62 270.694 711.2 270.445 710.859 270.146L711.692 269.194C711.981 269.427 712.313 269.619 712.686 269.768C713.059 269.913 713.463 269.985 713.897 269.985ZM722.424 263.412C723.148 263.412 723.757 263.573 724.251 263.895C724.746 264.217 725.119 264.667 725.371 265.246C725.628 265.825 725.756 266.506 725.756 267.29C725.756 268.069 725.626 268.753 725.364 269.341C725.108 269.924 724.73 270.379 724.23 270.706C723.736 271.028 723.131 271.189 722.417 271.189C721.703 271.189 721.097 271.033 720.597 270.72C720.103 270.403 719.725 269.952 719.463 269.369C719.207 268.786 719.078 268.097 719.078 267.304C719.078 266.534 719.207 265.857 719.463 265.274C719.725 264.691 720.105 264.236 720.604 263.909C721.104 263.578 721.71 263.412 722.424 263.412ZM722.424 264.63C721.86 264.63 721.435 264.847 721.15 265.281C720.866 265.71 720.723 266.385 720.723 267.304C720.723 268.219 720.863 268.893 721.143 269.327C721.428 269.761 721.853 269.978 722.417 269.978C722.982 269.978 723.404 269.761 723.684 269.327C723.969 268.893 724.111 268.214 724.111 267.29C724.111 266.38 723.971 265.71 723.691 265.281C723.411 264.847 722.989 264.63 722.424 264.63ZM727.718 271V263.608H729.069L729.188 264.567C729.496 264.189 729.86 263.902 730.28 263.706C730.7 263.51 731.132 263.412 731.575 263.412C732.266 263.412 732.781 263.606 733.122 263.993C733.467 264.376 733.64 264.915 733.64 265.61V271H732.072V266.387C732.072 265.958 732.046 265.612 731.995 265.351C731.944 265.09 731.841 264.901 731.687 264.784C731.538 264.667 731.314 264.609 731.015 264.609C730.777 264.609 730.551 264.66 730.336 264.763C730.121 264.866 729.925 265.001 729.748 265.169C729.571 265.332 729.417 265.507 729.286 265.694V271H727.718ZM744.29 267.822V266.534H750.072V267.822H744.29ZM758.656 270.608C758.385 270.781 758.061 270.921 757.683 271.028C757.305 271.135 756.91 271.189 756.5 271.189C755.641 271.189 754.988 270.967 754.54 270.524C754.096 270.076 753.875 269.488 753.875 268.76V264.749H752.23V263.608H753.875V261.956L755.443 261.767V263.608H757.935L757.76 264.749H755.443V268.746C755.443 269.143 755.541 269.439 755.737 269.635C755.937 269.826 756.264 269.922 756.717 269.922C756.987 269.922 757.237 269.889 757.466 269.824C757.694 269.759 757.902 269.675 758.089 269.572L758.656 270.608ZM770.587 269.831C770.587 269.579 770.645 269.353 770.762 269.152C770.883 268.947 771.046 268.783 771.252 268.662C771.457 268.541 771.686 268.48 771.938 268.48C772.194 268.48 772.425 268.541 772.631 268.662C772.836 268.783 772.997 268.947 773.114 269.152C773.235 269.353 773.296 269.579 773.296 269.831C773.296 270.078 773.235 270.307 773.114 270.517C772.997 270.722 772.836 270.886 772.631 271.007C772.425 271.128 772.194 271.189 771.938 271.189C771.686 271.189 771.457 271.128 771.252 271.007C771.046 270.886 770.883 270.722 770.762 270.517C770.645 270.307 770.587 270.078 770.587 269.831ZM777.854 272.491L776.608 271.931L782.558 259.632L783.79 260.213L777.854 272.491ZM786.802 267.808C786.834 268.312 786.942 268.725 787.124 269.047C787.306 269.364 787.544 269.598 787.838 269.747C788.136 269.896 788.463 269.971 788.818 269.971C789.182 269.971 789.518 269.915 789.826 269.803C790.134 269.691 790.444 269.532 790.757 269.327L791.436 270.265C791.09 270.545 790.687 270.769 790.225 270.937C789.763 271.105 789.268 271.189 788.741 271.189C787.975 271.189 787.327 271.026 786.795 270.699C786.267 270.372 785.866 269.917 785.591 269.334C785.315 268.751 785.178 268.076 785.178 267.311C785.178 266.569 785.313 265.906 785.584 265.323C785.854 264.735 786.242 264.271 786.746 263.93C787.25 263.585 787.852 263.412 788.552 263.412C789.21 263.412 789.774 263.561 790.246 263.86C790.722 264.159 791.088 264.583 791.345 265.134C791.606 265.68 791.737 266.338 791.737 267.108C791.737 267.234 791.732 267.36 791.723 267.486C791.718 267.607 791.711 267.715 791.702 267.808H786.802ZM788.566 264.574C788.076 264.574 787.67 264.749 787.348 265.099C787.03 265.449 786.846 265.995 786.795 266.737H790.218C790.204 266.042 790.054 265.507 789.77 265.134C789.49 264.761 789.088 264.574 788.566 264.574ZM798.85 263.412C799.13 263.412 799.382 263.473 799.606 263.594C799.83 263.715 800.005 263.928 800.131 264.231C800.262 264.534 800.327 264.959 800.327 265.505V271H798.934V265.722C798.934 265.335 798.906 265.057 798.85 264.889C798.799 264.721 798.661 264.637 798.437 264.637C798.26 264.637 798.08 264.693 797.898 264.805C797.716 264.912 797.532 265.099 797.345 265.365V271H796.078V265.722C796.078 265.335 796.05 265.057 795.994 264.889C795.943 264.721 795.805 264.637 795.581 264.637C795.399 264.637 795.217 264.693 795.035 264.805C794.858 264.912 794.676 265.099 794.489 265.365V271H793.089V263.608H794.272L794.377 264.406C794.587 264.112 794.816 263.874 795.063 263.692C795.311 263.505 795.609 263.412 795.959 263.412C796.239 263.412 796.494 263.482 796.722 263.622C796.951 263.762 797.119 264.007 797.226 264.357C797.432 264.077 797.665 263.851 797.926 263.678C798.188 263.501 798.496 263.412 798.85 263.412ZM807.658 269.187C807.658 269.476 807.702 269.689 807.791 269.824C807.879 269.955 808.022 270.053 808.218 270.118L807.868 271.182C807.504 271.14 807.191 271.04 806.93 270.881C806.668 270.722 806.47 270.482 806.335 270.16C806.064 270.501 805.721 270.757 805.306 270.93C804.89 271.103 804.447 271.189 803.976 271.189C803.229 271.189 802.636 270.979 802.198 270.559C801.764 270.134 801.547 269.579 801.547 268.893C801.547 268.114 801.85 267.514 802.457 267.094C803.063 266.674 803.931 266.464 805.061 266.464H806.118V265.981C806.118 265.505 805.973 265.162 805.684 264.952C805.399 264.742 804.995 264.637 804.473 264.637C804.23 264.637 803.936 264.67 803.591 264.735C803.245 264.796 802.884 264.891 802.506 265.022L802.121 263.916C802.583 263.743 803.035 263.617 803.479 263.538C803.922 263.454 804.333 263.412 804.711 263.412C805.7 263.412 806.437 263.631 806.923 264.07C807.413 264.509 807.658 265.115 807.658 265.89V269.187ZM804.452 270.034C804.769 270.034 805.079 269.95 805.383 269.782C805.686 269.614 805.931 269.378 806.118 269.075V267.444H805.25C804.512 267.444 803.985 267.568 803.668 267.815C803.35 268.058 803.192 268.394 803.192 268.823C803.192 269.215 803.297 269.516 803.507 269.726C803.721 269.931 804.036 270.034 804.452 270.034ZM814.302 263.608V269.852H816.311V271H810.522V269.852H812.734V264.756H810.592V263.608H814.302ZM813.21 259.989C813.518 259.989 813.766 260.082 813.952 260.269C814.144 260.456 814.239 260.689 814.239 260.969C814.239 261.249 814.144 261.485 813.952 261.676C813.766 261.867 813.518 261.963 813.21 261.963C812.912 261.963 812.667 261.867 812.475 261.676C812.284 261.485 812.188 261.249 812.188 260.969C812.188 260.689 812.284 260.456 812.475 260.269C812.667 260.082 812.912 259.989 813.21 259.989ZM821.766 260.64V268.984C821.766 269.325 821.869 269.567 822.074 269.712C822.284 269.852 822.555 269.922 822.886 269.922C823.101 269.922 823.304 269.899 823.495 269.852C823.686 269.805 823.873 269.747 824.055 269.677L824.454 270.769C824.235 270.881 823.964 270.979 823.642 271.063C823.325 271.147 822.961 271.189 822.55 271.189C821.808 271.189 821.229 270.981 820.814 270.566C820.403 270.146 820.198 269.572 820.198 268.844V261.795H817.965V260.64H821.766ZM828.368 269.831C828.368 269.579 828.427 269.353 828.543 269.152C828.665 268.947 828.828 268.783 829.033 268.662C829.239 268.541 829.467 268.48 829.719 268.48C829.976 268.48 830.207 268.541 830.412 268.662C830.618 268.783 830.779 268.947 830.895 269.152C831.017 269.353 831.077 269.579 831.077 269.831C831.077 270.078 831.017 270.307 830.895 270.517C830.779 270.722 830.618 270.886 830.412 271.007C830.207 271.128 829.976 271.189 829.719 271.189C829.467 271.189 829.239 271.128 829.033 271.007C828.828 270.886 828.665 270.722 828.543 270.517C828.427 270.307 828.368 270.078 828.368 269.831ZM836.595 260.486V264.511C836.894 264.147 837.244 263.874 837.645 263.692C838.046 263.505 838.459 263.412 838.884 263.412C839.579 263.412 840.097 263.606 840.438 263.993C840.779 264.376 840.949 264.915 840.949 265.61V271H839.381V265.855C839.381 265.412 839.297 265.094 839.129 264.903C838.961 264.707 838.69 264.609 838.317 264.609C838.084 264.609 837.86 264.663 837.645 264.77C837.435 264.873 837.239 265.008 837.057 265.176C836.88 265.344 836.726 265.524 836.595 265.715V271H835.027V260.654L836.595 260.486ZM849.455 270.608C849.185 270.781 848.86 270.921 848.482 271.028C848.104 271.135 847.71 271.189 847.299 271.189C846.441 271.189 845.787 270.967 845.339 270.524C844.896 270.076 844.674 269.488 844.674 268.76V264.749H843.029V263.608H844.674V261.956L846.242 261.767V263.608H848.734L848.559 264.749H846.242V268.746C846.242 269.143 846.34 269.439 846.536 269.635C846.737 269.826 847.064 269.922 847.516 269.922C847.787 269.922 848.037 269.889 848.265 269.824C848.494 269.759 848.702 269.675 848.888 269.572L849.455 270.608ZM856.632 263.412C856.912 263.412 857.164 263.473 857.388 263.594C857.612 263.715 857.787 263.928 857.913 264.231C858.044 264.534 858.109 264.959 858.109 265.505V271H856.716V265.722C856.716 265.335 856.688 265.057 856.632 264.889C856.581 264.721 856.443 264.637 856.219 264.637C856.042 264.637 855.862 264.693 855.68 264.805C855.498 264.912 855.314 265.099 855.127 265.365V271H853.86V265.722C853.86 265.335 853.832 265.057 853.776 264.889C853.725 264.721 853.587 264.637 853.363 264.637C853.181 264.637 852.999 264.693 852.817 264.805C852.64 264.912 852.458 265.099 852.271 265.365V271H850.871V263.608H852.054L852.159 264.406C852.369 264.112 852.598 263.874 852.845 263.692C853.092 263.505 853.391 263.412 853.741 263.412C854.021 263.412 854.275 263.482 854.504 263.622C854.733 263.762 854.901 264.007 855.008 264.357C855.213 264.077 855.447 263.851 855.708 263.678C855.969 263.501 856.277 263.412 856.632 263.412ZM863.039 260.64V268.984C863.039 269.325 863.141 269.567 863.347 269.712C863.557 269.852 863.827 269.922 864.159 269.922C864.373 269.922 864.576 269.899 864.768 269.852C864.959 269.805 865.146 269.747 865.328 269.677L865.727 270.769C865.507 270.881 865.237 270.979 864.915 271.063C864.597 271.147 864.233 271.189 863.823 271.189C863.081 271.189 862.502 270.981 862.087 270.566C861.676 270.146 861.471 269.572 861.471 268.844V261.795H859.238V260.64H863.039Z" fill="white"/>
<path d="M344.851 263.412C345.131 263.412 345.383 263.473 345.607 263.594C345.831 263.715 346.006 263.928 346.132 264.231C346.263 264.534 346.328 264.959 346.328 265.505V271H344.935V265.722C344.935 265.335 344.907 265.057 344.851 264.889C344.8 264.721 344.662 264.637 344.438 264.637C344.261 264.637 344.081 264.693 343.899 264.805C343.717 264.912 343.533 265.099 343.346 265.365V271H342.079V265.722C342.079 265.335 342.051 265.057 341.995 264.889C341.944 264.721 341.806 264.637 341.582 264.637C341.4 264.637 341.218 264.693 341.036 264.805C340.859 264.912 340.677 265.099 340.49 265.365V271H339.09V263.608H340.273L340.378 264.406C340.588 264.112 340.817 263.874 341.064 263.692C341.311 263.505 341.61 263.412 341.96 263.412C342.24 263.412 342.494 263.482 342.723 263.622C342.952 263.762 343.12 264.007 343.227 264.357C343.432 264.077 343.666 263.851 343.927 263.678C344.188 263.501 344.496 263.412 344.851 263.412ZM353.659 269.187C353.659 269.476 353.703 269.689 353.792 269.824C353.88 269.955 354.023 270.053 354.219 270.118L353.869 271.182C353.505 271.14 353.192 271.04 352.931 270.881C352.669 270.722 352.471 270.482 352.336 270.16C352.065 270.501 351.722 270.757 351.307 270.93C350.891 271.103 350.448 271.189 349.977 271.189C349.23 271.189 348.637 270.979 348.199 270.559C347.765 270.134 347.548 269.579 347.548 268.893C347.548 268.114 347.851 267.514 348.458 267.094C349.064 266.674 349.932 266.464 351.062 266.464H352.119V265.981C352.119 265.505 351.974 265.162 351.685 264.952C351.4 264.742 350.996 264.637 350.474 264.637C350.231 264.637 349.937 264.67 349.592 264.735C349.246 264.796 348.885 264.891 348.507 265.022L348.122 263.916C348.584 263.743 349.036 263.617 349.48 263.538C349.923 263.454 350.334 263.412 350.712 263.412C351.701 263.412 352.438 263.631 352.924 264.07C353.414 264.509 353.659 265.115 353.659 265.89V269.187ZM350.453 270.034C350.77 270.034 351.08 269.95 351.384 269.782C351.687 269.614 351.932 269.378 352.119 269.075V267.444H351.251C350.513 267.444 349.986 267.568 349.669 267.815C349.351 268.058 349.193 268.394 349.193 268.823C349.193 269.215 349.298 269.516 349.508 269.726C349.722 269.931 350.037 270.034 350.453 270.034ZM360.303 263.608V269.852H362.312V271H356.523V269.852H358.735V264.756H356.593V263.608H360.303ZM359.211 259.989C359.519 259.989 359.766 260.082 359.953 260.269C360.144 260.456 360.24 260.689 360.24 260.969C360.24 261.249 360.144 261.485 359.953 261.676C359.766 261.867 359.519 261.963 359.211 261.963C358.912 261.963 358.667 261.867 358.476 261.676C358.285 261.485 358.189 261.249 358.189 260.969C358.189 260.689 358.285 260.456 358.476 260.269C358.667 260.082 358.912 259.989 359.211 259.989ZM367.767 260.64V268.984C367.767 269.325 367.869 269.567 368.075 269.712C368.285 269.852 368.555 269.922 368.887 269.922C369.101 269.922 369.304 269.899 369.496 269.852C369.687 269.805 369.874 269.747 370.056 269.677L370.455 270.769C370.235 270.881 369.965 270.979 369.643 271.063C369.325 271.147 368.961 271.189 368.551 271.189C367.809 271.189 367.23 270.981 366.815 270.566C366.404 270.146 366.199 269.572 366.199 268.844V261.795H363.966V260.64H367.767ZM378.996 262.67L379.416 263.972C379.122 264.07 378.798 264.135 378.443 264.168C378.093 264.201 377.701 264.217 377.267 264.217C377.711 264.413 378.044 264.665 378.268 264.973C378.492 265.276 378.604 265.65 378.604 266.093C378.604 266.574 378.488 267.003 378.254 267.381C378.021 267.759 377.687 268.055 377.253 268.27C376.819 268.485 376.299 268.592 375.692 268.592C375.478 268.592 375.291 268.583 375.132 268.564C374.978 268.545 374.827 268.515 374.677 268.473C374.584 268.538 374.505 268.627 374.439 268.739C374.379 268.846 374.348 268.961 374.348 269.082C374.348 269.231 374.409 269.362 374.53 269.474C374.656 269.581 374.904 269.635 375.272 269.635H376.56C377.088 269.635 377.552 269.726 377.953 269.908C378.359 270.085 378.677 270.33 378.905 270.643C379.139 270.951 379.255 271.301 379.255 271.693C379.255 272.43 378.938 273.002 378.303 273.408C377.669 273.814 376.754 274.017 375.559 274.017C374.715 274.017 374.052 273.931 373.571 273.758C373.091 273.585 372.752 273.329 372.556 272.988C372.36 272.647 372.262 272.23 372.262 271.735H373.669C373.669 271.992 373.718 272.204 373.816 272.372C373.919 272.54 374.108 272.666 374.383 272.75C374.659 272.834 375.055 272.876 375.573 272.876C376.091 272.876 376.502 272.832 376.805 272.743C377.113 272.659 377.335 272.535 377.47 272.372C377.61 272.213 377.68 272.022 377.68 271.798C377.68 271.499 377.55 271.268 377.288 271.105C377.027 270.942 376.677 270.86 376.238 270.86H374.971C374.271 270.86 373.758 270.718 373.431 270.433C373.109 270.148 372.948 269.817 372.948 269.439C372.948 269.187 373.018 268.944 373.158 268.711C373.303 268.478 373.508 268.275 373.774 268.102C373.331 267.869 373.007 267.586 372.801 267.255C372.601 266.919 372.5 266.513 372.5 266.037C372.5 265.514 372.631 265.057 372.892 264.665C373.154 264.273 373.515 263.967 373.977 263.748C374.444 263.529 374.981 263.419 375.587 263.419C376.18 263.419 376.675 263.389 377.071 263.328C377.468 263.263 377.813 263.172 378.107 263.055C378.406 262.938 378.702 262.81 378.996 262.67ZM375.601 264.497C375.102 264.497 374.726 264.639 374.474 264.924C374.222 265.204 374.096 265.57 374.096 266.023C374.096 266.49 374.225 266.865 374.481 267.15C374.743 267.43 375.123 267.57 375.622 267.57C376.084 267.57 376.437 267.435 376.679 267.164C376.927 266.893 377.05 266.508 377.05 266.009C377.05 265.505 376.929 265.127 376.686 264.875C376.444 264.623 376.082 264.497 375.601 264.497ZM381.098 271V269.88H382.183V264.721H381.098V263.608H383.38L383.667 265.323C383.942 264.702 384.283 264.231 384.689 263.909C385.099 263.582 385.627 263.419 386.271 263.419C386.49 263.419 386.686 263.438 386.859 263.475C387.036 263.508 387.211 263.552 387.384 263.608L386.915 264.952C386.765 264.91 386.625 264.88 386.495 264.861C386.364 264.838 386.219 264.826 386.061 264.826C385.524 264.826 385.06 265.027 384.668 265.428C384.28 265.829 383.975 266.399 383.751 267.136V269.88H385.242V271H381.098ZM385.998 266.331V264.511L386.194 263.608H387.384L387.118 266.331H385.998ZM393.321 263.608V269.852H395.33V271H389.541V269.852H391.753V264.756H389.611V263.608H393.321ZM392.229 259.989C392.537 259.989 392.785 260.082 392.971 260.269C393.163 260.456 393.258 260.689 393.258 260.969C393.258 261.249 393.163 261.485 392.971 261.676C392.785 261.867 392.537 261.963 392.229 261.963C391.931 261.963 391.686 261.867 391.494 261.676C391.303 261.485 391.207 261.249 391.207 260.969C391.207 260.689 391.303 260.456 391.494 260.269C391.686 260.082 391.931 259.989 392.229 259.989ZM401.877 260.465L403.445 260.64V271H402.066L401.954 270.09C401.702 270.44 401.401 270.711 401.051 270.902C400.701 271.093 400.309 271.189 399.875 271.189C399.24 271.189 398.717 271.028 398.307 270.706C397.896 270.379 397.59 269.924 397.39 269.341C397.194 268.753 397.096 268.074 397.096 267.304C397.096 266.553 397.212 265.885 397.446 265.302C397.679 264.714 398.013 264.252 398.447 263.916C398.881 263.58 399.403 263.412 400.015 263.412C400.402 263.412 400.75 263.482 401.058 263.622C401.366 263.757 401.639 263.956 401.877 264.217V260.465ZM400.428 264.616C399.9 264.616 399.49 264.835 399.196 265.274C398.902 265.708 398.755 266.385 398.755 267.304C398.755 267.934 398.815 268.447 398.937 268.844C399.058 269.236 399.233 269.525 399.462 269.712C399.69 269.894 399.966 269.985 400.288 269.985C400.642 269.985 400.95 269.882 401.212 269.677C401.473 269.472 401.695 269.224 401.877 268.935V265.435C401.695 265.174 401.482 264.973 401.24 264.833C400.997 264.688 400.726 264.616 400.428 264.616Z" fill="#00FF9F"/>
</svg>
