<svg width="1200" height="400" viewBox="0 0 1200 400" fill="none" xmlns="http://www.w3.org/2000/svg">
<rect width="1200" height="400" fill="#1E1E1E"/>
<path d="M537.44 170.16C541.6 170.16 544.9 171.42 547.34 173.94C549.82 176.46 551.06 179.96 551.06 184.44V204H540.86V185.82C540.86 183.66 540.28 182 539.12 180.84C538 179.64 536.44 179.04 534.44 179.04C532.44 179.04 530.86 179.64 529.7 180.84C528.58 182 528.02 183.66 528.02 185.82V204H517.82V185.82C517.82 183.66 517.24 182 516.08 180.84C514.96 179.64 513.4 179.04 511.4 179.04C509.4 179.04 507.82 179.64 506.66 180.84C505.54 182 504.98 183.66 504.98 185.82V204H494.72V170.52H504.98V174.72C506.02 173.32 507.38 172.22 509.06 171.42C510.74 170.58 512.64 170.16 514.76 170.16C517.28 170.16 519.52 170.7 521.48 171.78C523.48 172.86 525.04 174.4 526.16 176.4C527.32 174.56 528.9 173.06 530.9 171.9C532.9 170.74 535.08 170.16 537.44 170.16ZM555.596 187.2C555.596 183.76 556.236 180.74 557.516 178.14C558.836 175.54 560.616 173.54 562.856 172.14C565.096 170.74 567.596 170.04 570.356 170.04C572.716 170.04 574.776 170.52 576.536 171.48C578.336 172.44 579.716 173.7 580.676 175.26V170.52H590.936V204H580.676V199.26C579.676 200.82 578.276 202.08 576.476 203.04C574.716 204 572.656 204.48 570.296 204.48C567.576 204.48 565.096 203.78 562.856 202.38C560.616 200.94 558.836 198.92 557.516 196.32C556.236 193.68 555.596 190.64 555.596 187.2ZM580.676 187.26C580.676 184.7 579.956 182.68 578.516 181.2C577.116 179.72 575.396 178.98 573.356 178.98C571.316 178.98 569.576 179.72 568.136 181.2C566.736 182.64 566.036 184.64 566.036 187.2C566.036 189.76 566.736 191.8 568.136 193.32C569.576 194.8 571.316 195.54 573.356 195.54C575.396 195.54 577.116 194.8 578.516 193.32C579.956 191.84 580.676 189.82 580.676 187.26ZM602.918 167.04C601.118 167.04 599.638 166.52 598.478 165.48C597.358 164.4 596.798 163.08 596.798 161.52C596.798 159.92 597.358 158.6 598.478 157.56C599.638 156.48 601.118 155.94 602.918 155.94C604.678 155.94 606.118 156.48 607.238 157.56C608.398 158.6 608.978 159.92 608.978 161.52C608.978 163.08 608.398 164.4 607.238 165.48C606.118 166.52 604.678 167.04 602.918 167.04ZM608.018 170.52V204H597.758V170.52H608.018ZM625.114 159.6V204H614.854V159.6H625.114ZM644.669 170.04C647.029 170.04 649.089 170.52 650.849 171.48C652.649 172.44 654.029 173.7 654.989 175.26V170.52H665.249V203.94C665.249 207.02 664.629 209.8 663.389 212.28C662.189 214.8 660.329 216.8 657.809 218.28C655.329 219.76 652.229 220.5 648.509 220.5C643.549 220.5 639.529 219.32 636.449 216.96C633.369 214.64 631.609 211.48 631.169 207.48H641.309C641.629 208.76 642.389 209.76 643.589 210.48C644.789 211.24 646.269 211.62 648.029 211.62C650.149 211.62 651.829 211 653.069 209.76C654.349 208.56 654.989 206.62 654.989 203.94V199.2C653.989 200.76 652.609 202.04 650.849 203.04C649.089 204 647.029 204.48 644.669 204.48C641.909 204.48 639.409 203.78 637.169 202.38C634.929 200.94 633.149 198.92 631.829 196.32C630.549 193.68 629.909 190.64 629.909 187.2C629.909 183.76 630.549 180.74 631.829 178.14C633.149 175.54 634.929 173.54 637.169 172.14C639.409 170.74 641.909 170.04 644.669 170.04ZM654.989 187.26C654.989 184.7 654.269 182.68 652.829 181.2C651.429 179.72 649.709 178.98 647.669 178.98C645.629 178.98 643.889 179.72 642.449 181.2C641.049 182.64 640.349 184.64 640.349 187.2C640.349 189.76 641.049 191.8 642.449 193.32C643.889 194.8 645.629 195.54 647.669 195.54C649.709 195.54 651.429 194.8 652.829 193.32C654.269 191.84 654.989 189.82 654.989 187.26ZM682.332 176.1C683.532 174.26 685.032 172.82 686.832 171.78C688.632 170.7 690.632 170.16 692.832 170.16V181.02H690.012C687.452 181.02 685.532 181.58 684.252 182.7C682.972 183.78 682.332 185.7 682.332 188.46V204H672.072V170.52H682.332V176.1ZM702.296 167.04C700.496 167.04 699.016 166.52 697.856 165.48C696.736 164.4 696.176 163.08 696.176 161.52C696.176 159.92 696.736 158.6 697.856 157.56C699.016 156.48 700.496 155.94 702.296 155.94C704.056 155.94 705.496 156.48 706.616 157.56C707.776 158.6 708.356 159.92 708.356 161.52C708.356 163.08 707.776 164.4 706.616 165.48C705.496 166.52 704.056 167.04 702.296 167.04ZM707.396 170.52V204H697.136V170.52H707.396ZM712.191 187.2C712.191 183.76 712.831 180.74 714.111 178.14C715.431 175.54 717.211 173.54 719.451 172.14C721.691 170.74 724.191 170.04 726.951 170.04C729.151 170.04 731.151 170.5 732.951 171.42C734.791 172.34 736.231 173.58 737.271 175.14V159.6H747.531V204H737.271V199.2C736.311 200.8 734.931 202.08 733.131 203.04C731.371 204 729.311 204.48 726.951 204.48C724.191 204.48 721.691 203.78 719.451 202.38C717.211 200.94 715.431 198.92 714.111 196.32C712.831 193.68 712.191 190.64 712.191 187.2ZM737.271 187.26C737.271 184.7 736.551 182.68 735.111 181.2C733.711 179.72 731.991 178.98 729.951 178.98C727.911 178.98 726.171 179.72 724.731 181.2C723.331 182.64 722.631 184.64 722.631 187.2C722.631 189.76 723.331 191.8 724.731 193.32C726.171 194.8 727.911 195.54 729.951 195.54C731.991 195.54 733.711 194.8 735.111 193.32C736.551 191.84 737.271 189.82 737.271 187.26Z" fill="white"/>
<path d="M456.75 181.75L466.125 188L475.5 181.75" stroke="#F64A4A" stroke-width="1.5" stroke-linecap="round" stroke-linejoin="round"/>
<path d="M444.25 191.125H448.417" stroke="#F64A4A" stroke-width="1.5" stroke-linecap="round" stroke-linejoin="round"/>
<path d="M440.083 184.875H448.417" stroke="#F64A4A" stroke-width="1.5" stroke-linecap="round" stroke-linejoin="round"/>
<path d="M448.417 178.625V177.583C448.417 175.282 450.282 173.417 452.583 173.417H479.667C481.968 173.417 483.833 175.282 483.833 177.583V198.417C483.833 200.718 481.968 202.583 479.667 202.583H452.583C450.282 202.583 448.417 200.718 448.417 198.417V197.375" stroke="#F64A4A" stroke-width="1.5" stroke-linecap="round"/>
<path d="M304.856 243.592H297.872L296.672 247H293.816L299.792 230.296H302.96L308.936 247H306.056L304.856 243.592ZM304.088 241.36L301.376 233.608L298.64 241.36H304.088ZM323.27 233.776V247H320.534V245.44C320.102 245.984 319.534 246.416 318.83 246.736C318.142 247.04 317.406 247.192 316.622 247.192C315.582 247.192 314.646 246.976 313.814 246.544C312.998 246.112 312.35 245.472 311.87 244.624C311.406 243.776 311.174 242.752 311.174 241.552V233.776H313.886V241.144C313.886 242.328 314.182 243.24 314.774 243.88C315.366 244.504 316.174 244.816 317.198 244.816C318.222 244.816 319.03 244.504 319.622 243.88C320.23 243.24 320.534 242.328 320.534 241.144V233.776H323.27ZM329.832 236.008V243.328C329.832 243.824 329.944 244.184 330.168 244.408C330.408 244.616 330.808 244.72 331.368 244.72H333.048V247H330.888C329.656 247 328.712 246.712 328.056 246.136C327.4 245.56 327.072 244.624 327.072 243.328V236.008H325.512V233.776H327.072V230.488H329.832V233.776H333.048V236.008H329.832ZM341.066 247.216C339.818 247.216 338.69 246.936 337.682 246.376C336.674 245.8 335.882 245 335.306 243.976C334.73 242.936 334.442 241.736 334.442 240.376C334.442 239.032 334.738 237.84 335.33 236.8C335.922 235.76 336.73 234.96 337.754 234.4C338.778 233.84 339.922 233.56 341.186 233.56C342.45 233.56 343.594 233.84 344.618 234.4C345.642 234.96 346.45 235.76 347.042 236.8C347.634 237.84 347.93 239.032 347.93 240.376C347.93 241.72 347.626 242.912 347.018 243.952C346.41 244.992 345.578 245.8 344.522 246.376C343.482 246.936 342.33 247.216 341.066 247.216ZM341.066 244.84C341.77 244.84 342.426 244.672 343.034 244.336C343.658 244 344.162 243.496 344.546 242.824C344.93 242.152 345.122 241.336 345.122 240.376C345.122 239.416 344.938 238.608 344.57 237.952C344.202 237.28 343.714 236.776 343.106 236.44C342.498 236.104 341.842 235.936 341.138 235.936C340.434 235.936 339.778 236.104 339.17 236.44C338.578 236.776 338.106 237.28 337.754 237.952C337.402 238.608 337.226 239.416 337.226 240.376C337.226 241.8 337.586 242.904 338.306 243.688C339.042 244.456 339.962 244.84 341.066 244.84ZM366.403 233.56C367.443 233.56 368.371 233.776 369.187 234.208C370.019 234.64 370.667 235.28 371.131 236.128C371.611 236.976 371.851 238 371.851 239.2V247H369.139V239.608C369.139 238.424 368.843 237.52 368.251 236.896C367.659 236.256 366.851 235.936 365.827 235.936C364.803 235.936 363.987 236.256 363.379 236.896C362.787 237.52 362.491 238.424 362.491 239.608V247H359.779V239.608C359.779 238.424 359.483 237.52 358.891 236.896C358.299 236.256 357.491 235.936 356.467 235.936C355.443 235.936 354.627 236.256 354.019 236.896C353.427 237.52 353.131 238.424 353.131 239.608V247H350.395V233.776H353.131V235.288C353.579 234.744 354.147 234.32 354.835 234.016C355.523 233.712 356.259 233.56 357.043 233.56C358.099 233.56 359.043 233.784 359.875 234.232C360.707 234.68 361.347 235.328 361.795 236.176C362.195 235.376 362.819 234.744 363.667 234.28C364.515 233.8 365.427 233.56 366.403 233.56ZM374.18 240.328C374.18 239 374.452 237.824 374.996 236.8C375.556 235.776 376.308 234.984 377.252 234.424C378.212 233.848 379.268 233.56 380.42 233.56C381.46 233.56 382.364 233.768 383.132 234.184C383.916 234.584 384.54 235.088 385.004 235.696V233.776H387.764V247H385.004V245.032C384.54 245.656 383.908 246.176 383.108 246.592C382.308 247.008 381.396 247.216 380.372 247.216C379.236 247.216 378.196 246.928 377.252 246.352C376.308 245.76 375.556 244.944 374.996 243.904C374.452 242.848 374.18 241.656 374.18 240.328ZM385.004 240.376C385.004 239.464 384.812 238.672 384.428 238C384.06 237.328 383.572 236.816 382.964 236.464C382.356 236.112 381.7 235.936 380.996 235.936C380.292 235.936 379.636 236.112 379.028 236.464C378.42 236.8 377.924 237.304 377.54 237.976C377.172 238.632 376.988 239.416 376.988 240.328C376.988 241.24 377.172 242.04 377.54 242.728C377.924 243.416 378.42 243.944 379.028 244.312C379.652 244.664 380.308 244.84 380.996 244.84C381.7 244.84 382.356 244.664 382.964 244.312C383.572 243.96 384.06 243.448 384.428 242.776C384.812 242.088 385.004 241.288 385.004 240.376ZM394.31 236.008V243.328C394.31 243.824 394.422 244.184 394.646 244.408C394.886 244.616 395.286 244.72 395.846 244.72H397.526V247H395.366C394.134 247 393.19 246.712 392.534 246.136C391.878 245.56 391.55 244.624 391.55 243.328V236.008H389.99V233.776H391.55V230.488H394.31V233.776H397.526V236.008H394.31ZM411.928 240.064C411.928 240.56 411.896 241.008 411.832 241.408H401.727C401.807 242.464 402.199 243.312 402.903 243.952C403.607 244.592 404.471 244.912 405.495 244.912C406.967 244.912 408.008 244.296 408.616 243.064H411.567C411.168 244.28 410.44 245.28 409.384 246.064C408.344 246.832 407.047 247.216 405.495 247.216C404.231 247.216 403.095 246.936 402.087 246.376C401.095 245.8 400.311 245 399.735 243.976C399.175 242.936 398.895 241.736 398.895 240.376C398.895 239.016 399.167 237.824 399.711 236.8C400.271 235.76 401.047 234.96 402.039 234.4C403.047 233.84 404.199 233.56 405.495 233.56C406.743 233.56 407.856 233.832 408.832 234.376C409.808 234.92 410.568 235.688 411.111 236.68C411.656 237.656 411.928 238.784 411.928 240.064ZM409.072 239.2C409.056 238.192 408.695 237.384 407.991 236.776C407.287 236.168 406.415 235.864 405.375 235.864C404.431 235.864 403.623 236.168 402.952 236.776C402.279 237.368 401.879 238.176 401.751 239.2H409.072ZM413.468 240.328C413.468 239 413.74 237.824 414.284 236.8C414.844 235.776 415.596 234.984 416.54 234.424C417.5 233.848 418.564 233.56 419.732 233.56C420.596 233.56 421.444 233.752 422.276 234.136C423.124 234.504 423.796 235 424.292 235.624V229.24H427.052V247H424.292V245.008C423.844 245.648 423.22 246.176 422.42 246.592C421.636 247.008 420.732 247.216 419.708 247.216C418.556 247.216 417.5 246.928 416.54 246.352C415.596 245.76 414.844 244.944 414.284 243.904C413.74 242.848 413.468 241.656 413.468 240.328ZM424.292 240.376C424.292 239.464 424.1 238.672 423.716 238C423.348 237.328 422.86 236.816 422.252 236.464C421.644 236.112 420.988 235.936 420.284 235.936C419.58 235.936 418.924 236.112 418.316 236.464C417.708 236.8 417.212 237.304 416.828 237.976C416.46 238.632 416.276 239.416 416.276 240.328C416.276 241.24 416.46 242.04 416.828 242.728C417.212 243.416 417.708 243.944 418.316 244.312C418.94 244.664 419.596 244.84 420.284 244.84C420.988 244.84 421.644 244.664 422.252 244.312C422.86 243.96 423.348 243.448 423.716 242.776C424.1 242.088 424.292 241.288 424.292 240.376ZM448.52 240.064C448.52 240.56 448.488 241.008 448.424 241.408H438.32C438.4 242.464 438.792 243.312 439.496 243.952C440.2 244.592 441.064 244.912 442.088 244.912C443.56 244.912 444.6 244.296 445.208 243.064H448.16C447.76 244.28 447.032 245.28 445.976 246.064C444.936 246.832 443.64 247.216 442.088 247.216C440.824 247.216 439.688 246.936 438.68 246.376C437.688 245.8 436.904 245 436.328 243.976C435.768 242.936 435.488 241.736 435.488 240.376C435.488 239.016 435.76 237.824 436.304 236.8C436.864 235.76 437.64 234.96 438.632 234.4C439.64 233.84 440.792 233.56 442.088 233.56C443.336 233.56 444.448 233.832 445.424 234.376C446.4 234.92 447.16 235.688 447.704 236.68C448.248 237.656 448.52 238.784 448.52 240.064ZM445.664 239.2C445.648 238.192 445.288 237.384 444.584 236.776C443.88 236.168 443.008 235.864 441.968 235.864C441.024 235.864 440.216 236.168 439.544 236.776C438.872 237.368 438.472 238.176 438.344 239.2H445.664ZM466.981 233.56C468.021 233.56 468.949 233.776 469.765 234.208C470.597 234.64 471.245 235.28 471.709 236.128C472.189 236.976 472.429 238 472.429 239.2V247H469.717V239.608C469.717 238.424 469.421 237.52 468.829 236.896C468.237 236.256 467.429 235.936 466.405 235.936C465.381 235.936 464.565 236.256 463.957 236.896C463.365 237.52 463.069 238.424 463.069 239.608V247H460.357V239.608C460.357 238.424 460.061 237.52 459.469 236.896C458.877 236.256 458.069 235.936 457.045 235.936C456.021 235.936 455.205 236.256 454.597 236.896C454.005 237.52 453.709 238.424 453.709 239.608V247H450.973V233.776H453.709V235.288C454.157 234.744 454.725 234.32 455.413 234.016C456.101 233.712 456.837 233.56 457.621 233.56C458.677 233.56 459.621 233.784 460.453 234.232C461.285 234.68 461.925 235.328 462.373 236.176C462.773 235.376 463.397 234.744 464.245 234.28C465.093 233.8 466.005 233.56 466.981 233.56ZM474.758 240.328C474.758 239 475.03 237.824 475.574 236.8C476.134 235.776 476.886 234.984 477.83 234.424C478.79 233.848 479.846 233.56 480.998 233.56C482.038 233.56 482.942 233.768 483.71 234.184C484.494 234.584 485.118 235.088 485.582 235.696V233.776H488.342V247H485.582V245.032C485.118 245.656 484.486 246.176 483.686 246.592C482.886 247.008 481.974 247.216 480.95 247.216C479.814 247.216 478.774 246.928 477.83 246.352C476.886 245.76 476.134 244.944 475.574 243.904C475.03 242.848 474.758 241.656 474.758 240.328ZM485.582 240.376C485.582 239.464 485.39 238.672 485.006 238C484.638 237.328 484.15 236.816 483.542 236.464C482.934 236.112 482.278 235.936 481.574 235.936C480.87 235.936 480.214 236.112 479.606 236.464C478.998 236.8 478.502 237.304 478.118 237.976C477.75 238.632 477.566 239.416 477.566 240.328C477.566 241.24 477.75 242.04 478.118 242.728C478.502 243.416 478.998 243.944 479.606 244.312C480.23 244.664 480.886 244.84 481.574 244.84C482.278 244.84 482.934 244.664 483.542 244.312C484.15 243.96 484.638 243.448 485.006 242.776C485.39 242.088 485.582 241.288 485.582 240.376ZM493.088 232.024C492.592 232.024 492.176 231.856 491.84 231.52C491.504 231.184 491.336 230.768 491.336 230.272C491.336 229.776 491.504 229.36 491.84 229.024C492.176 228.688 492.592 228.52 493.088 228.52C493.568 228.52 493.976 228.688 494.312 229.024C494.648 229.36 494.816 229.776 494.816 230.272C494.816 230.768 494.648 231.184 494.312 231.52C493.976 231.856 493.568 232.024 493.088 232.024ZM494.432 233.776V247H491.696V233.776H494.432ZM500.52 229.24V247H497.784V229.24H500.52ZM508.954 240.328C508.954 239 509.226 237.824 509.77 236.8C510.33 235.776 511.082 234.984 512.026 234.424C512.986 233.848 514.05 233.56 515.218 233.56C516.082 233.56 516.93 233.752 517.762 234.136C518.61 234.504 519.282 235 519.778 235.624V229.24H522.538V247H519.778V245.008C519.33 245.648 518.706 246.176 517.906 246.592C517.122 247.008 516.218 247.216 515.194 247.216C514.042 247.216 512.986 246.928 512.026 246.352C511.082 245.76 510.33 244.944 509.77 243.904C509.226 242.848 508.954 241.656 508.954 240.328ZM519.778 240.376C519.778 239.464 519.586 238.672 519.202 238C518.834 237.328 518.346 236.816 517.738 236.464C517.13 236.112 516.474 235.936 515.77 235.936C515.066 235.936 514.41 236.112 513.802 236.464C513.194 236.8 512.698 237.304 512.314 237.976C511.946 238.632 511.762 239.416 511.762 240.328C511.762 241.24 511.946 242.04 512.314 242.728C512.698 243.416 513.194 243.944 513.802 244.312C514.426 244.664 515.082 244.84 515.77 244.84C516.474 244.84 517.13 244.664 517.738 244.312C518.346 243.96 518.834 243.448 519.202 242.776C519.586 242.088 519.778 241.288 519.778 240.376ZM538.012 240.064C538.012 240.56 537.98 241.008 537.916 241.408H527.812C527.892 242.464 528.284 243.312 528.988 243.952C529.692 244.592 530.556 244.912 531.58 244.912C533.052 244.912 534.092 244.296 534.7 243.064H537.652C537.252 244.28 536.524 245.28 535.468 246.064C534.428 246.832 533.132 247.216 531.58 247.216C530.316 247.216 529.18 246.936 528.172 246.376C527.18 245.8 526.396 245 525.82 243.976C525.26 242.936 524.98 241.736 524.98 240.376C524.98 239.016 525.252 237.824 525.796 236.8C526.356 235.76 527.132 234.96 528.124 234.4C529.132 233.84 530.284 233.56 531.58 233.56C532.828 233.56 533.94 233.832 534.916 234.376C535.892 234.92 536.652 235.688 537.196 236.68C537.74 237.656 538.012 238.784 538.012 240.064ZM535.156 239.2C535.14 238.192 534.78 237.384 534.076 236.776C533.372 236.168 532.5 235.864 531.46 235.864C530.516 235.864 529.708 236.168 529.036 236.776C528.364 237.368 527.964 238.176 527.836 239.2H535.156ZM543.2 229.24V247H540.464V229.24H543.2ZM547.945 232.024C547.449 232.024 547.033 231.856 546.697 231.52C546.361 231.184 546.193 230.768 546.193 230.272C546.193 229.776 546.361 229.36 546.697 229.024C547.033 228.688 547.449 228.52 547.945 228.52C548.425 228.52 548.833 228.688 549.169 229.024C549.505 229.36 549.673 229.776 549.673 230.272C549.673 230.768 549.505 231.184 549.169 231.52C548.833 231.856 548.425 232.024 547.945 232.024ZM549.289 233.776V247H546.553V233.776H549.289ZM557.753 244.552L561.497 233.776H564.401L559.361 247H556.097L551.081 233.776H554.009L557.753 244.552ZM578.349 240.064C578.349 240.56 578.317 241.008 578.253 241.408H568.149C568.229 242.464 568.621 243.312 569.325 243.952C570.029 244.592 570.893 244.912 571.917 244.912C573.389 244.912 574.429 244.296 575.037 243.064H577.989C577.589 244.28 576.861 245.28 575.805 246.064C574.765 246.832 573.469 247.216 571.917 247.216C570.653 247.216 569.517 246.936 568.509 246.376C567.517 245.8 566.733 245 566.157 243.976C565.597 242.936 565.317 241.736 565.317 240.376C565.317 239.016 565.589 237.824 566.133 236.8C566.693 235.76 567.469 234.96 568.461 234.4C569.469 233.84 570.621 233.56 571.917 233.56C573.165 233.56 574.277 233.832 575.253 234.376C576.229 234.92 576.989 235.688 577.533 236.68C578.077 237.656 578.349 238.784 578.349 240.064ZM575.493 239.2C575.477 238.192 575.117 237.384 574.413 236.776C573.709 236.168 572.837 235.864 571.797 235.864C570.853 235.864 570.045 236.168 569.373 236.776C568.701 237.368 568.301 238.176 568.173 239.2H575.493ZM583.537 235.696C583.937 235.024 584.465 234.504 585.121 234.136C585.793 233.752 586.585 233.56 587.497 233.56V236.392H586.801C585.729 236.392 584.913 236.664 584.353 237.208C583.809 237.752 583.537 238.696 583.537 240.04V247H580.801V233.776H583.537V235.696ZM601.676 233.776L593.564 253.216H590.732L593.42 246.784L588.212 233.776H591.26L594.98 243.856L598.844 233.776H601.676ZM615.039 236.008H612.591V247H609.831V236.008H608.271V233.776H609.831V232.84C609.831 231.32 610.231 230.216 611.031 229.528C611.847 228.824 613.119 228.472 614.847 228.472V230.752C614.015 230.752 613.431 230.912 613.095 231.232C612.759 231.536 612.591 232.072 612.591 232.84V233.776H615.039V236.008ZM619.96 235.696C620.36 235.024 620.888 234.504 621.544 234.136C622.216 233.752 623.008 233.56 623.92 233.56V236.392H623.224C622.152 236.392 621.336 236.664 620.776 237.208C620.232 237.752 619.96 238.696 619.96 240.04V247H617.224V233.776H619.96V235.696ZM631.931 247.216C630.683 247.216 629.555 246.936 628.547 246.376C627.539 245.8 626.747 245 626.171 243.976C625.595 242.936 625.307 241.736 625.307 240.376C625.307 239.032 625.603 237.84 626.195 236.8C626.787 235.76 627.595 234.96 628.619 234.4C629.643 233.84 630.787 233.56 632.051 233.56C633.315 233.56 634.459 233.84 635.483 234.4C636.507 234.96 637.315 235.76 637.907 236.8C638.499 237.84 638.795 239.032 638.795 240.376C638.795 241.72 638.491 242.912 637.883 243.952C637.275 244.992 636.443 245.8 635.387 246.376C634.347 246.936 633.195 247.216 631.931 247.216ZM631.931 244.84C632.635 244.84 633.291 244.672 633.899 244.336C634.523 244 635.027 243.496 635.411 242.824C635.795 242.152 635.987 241.336 635.987 240.376C635.987 239.416 635.803 238.608 635.435 237.952C635.067 237.28 634.579 236.776 633.971 236.44C633.363 236.104 632.707 235.936 632.003 235.936C631.299 235.936 630.643 236.104 630.035 236.44C629.443 236.776 628.971 237.28 628.619 237.952C628.267 238.608 628.091 239.416 628.091 240.376C628.091 241.8 628.451 242.904 629.171 243.688C629.907 244.456 630.827 244.84 631.931 244.84ZM657.268 233.56C658.308 233.56 659.236 233.776 660.052 234.208C660.884 234.64 661.532 235.28 661.996 236.128C662.476 236.976 662.716 238 662.716 239.2V247H660.004V239.608C660.004 238.424 659.708 237.52 659.116 236.896C658.524 236.256 657.716 235.936 656.692 235.936C655.668 235.936 654.852 236.256 654.244 236.896C653.652 237.52 653.356 238.424 653.356 239.608V247H650.644V239.608C650.644 238.424 650.348 237.52 649.756 236.896C649.164 236.256 648.356 235.936 647.332 235.936C646.308 235.936 645.492 236.256 644.884 236.896C644.292 237.52 643.996 238.424 643.996 239.608V247H641.26V233.776H643.996V235.288C644.444 234.744 645.012 234.32 645.7 234.016C646.388 233.712 647.124 233.56 647.908 233.56C648.964 233.56 649.908 233.784 650.74 234.232C651.572 234.68 652.212 235.328 652.66 236.176C653.06 235.376 653.684 234.744 654.532 234.28C655.38 233.8 656.292 233.56 657.268 233.56ZM683.856 233.776L675.744 253.216H672.912L675.6 246.784L670.392 233.776H673.44L677.16 243.856L681.024 233.776H683.856ZM691.416 247.216C690.168 247.216 689.04 246.936 688.032 246.376C687.024 245.8 686.232 245 685.656 243.976C685.08 242.936 684.792 241.736 684.792 240.376C684.792 239.032 685.088 237.84 685.68 236.8C686.272 235.76 687.08 234.96 688.104 234.4C689.128 233.84 690.272 233.56 691.536 233.56C692.8 233.56 693.944 233.84 694.968 234.4C695.992 234.96 696.8 235.76 697.392 236.8C697.984 237.84 698.28 239.032 698.28 240.376C698.28 241.72 697.976 242.912 697.368 243.952C696.76 244.992 695.928 245.8 694.872 246.376C693.832 246.936 692.68 247.216 691.416 247.216ZM691.416 244.84C692.12 244.84 692.776 244.672 693.384 244.336C694.008 244 694.512 243.496 694.896 242.824C695.28 242.152 695.472 241.336 695.472 240.376C695.472 239.416 695.288 238.608 694.92 237.952C694.552 237.28 694.064 236.776 693.456 236.44C692.848 236.104 692.192 235.936 691.488 235.936C690.784 235.936 690.128 236.104 689.52 236.44C688.928 236.776 688.456 237.28 688.104 237.952C687.752 238.608 687.576 239.416 687.576 240.376C687.576 241.8 687.936 242.904 688.656 243.688C689.392 244.456 690.312 244.84 691.416 244.84ZM712.721 233.776V247H709.985V245.44C709.553 245.984 708.985 246.416 708.281 246.736C707.593 247.04 706.857 247.192 706.073 247.192C705.033 247.192 704.097 246.976 703.265 246.544C702.449 246.112 701.801 245.472 701.321 244.624C700.857 243.776 700.625 242.752 700.625 241.552V233.776H703.337V241.144C703.337 242.328 703.633 243.24 704.225 243.88C704.817 244.504 705.625 244.816 706.649 244.816C707.673 244.816 708.481 244.504 709.073 243.88C709.681 243.24 709.985 242.328 709.985 241.144V233.776H712.721ZM718.827 235.696C719.227 235.024 719.755 234.504 720.411 234.136C721.083 233.752 721.875 233.56 722.787 233.56V236.392H722.091C721.019 236.392 720.203 236.664 719.643 237.208C719.099 237.752 718.827 238.696 718.827 240.04V247H716.091V233.776H718.827V235.696ZM735.856 247.216C734.816 247.216 733.88 247.032 733.048 246.664C732.232 246.28 731.584 245.768 731.104 245.128C730.624 244.472 730.368 243.744 730.336 242.944H733.168C733.216 243.504 733.48 243.976 733.96 244.36C734.456 244.728 735.072 244.912 735.808 244.912C736.576 244.912 737.168 244.768 737.584 244.48C738.016 244.176 738.232 243.792 738.232 243.328C738.232 242.832 737.992 242.464 737.512 242.224C737.048 241.984 736.304 241.72 735.28 241.432C734.288 241.16 733.48 240.896 732.856 240.64C732.232 240.384 731.688 239.992 731.224 239.464C730.776 238.936 730.552 238.24 730.552 237.376C730.552 236.672 730.76 236.032 731.176 235.456C731.592 234.864 732.184 234.4 732.952 234.064C733.736 233.728 734.632 233.56 735.64 233.56C737.144 233.56 738.352 233.944 739.264 234.712C740.192 235.464 740.688 236.496 740.752 237.808H738.016C737.968 237.216 737.728 236.744 737.296 236.392C736.864 236.04 736.28 235.864 735.544 235.864C734.824 235.864 734.272 236 733.888 236.272C733.504 236.544 733.312 236.904 733.312 237.352C733.312 237.704 733.44 238 733.696 238.24C733.952 238.48 734.264 238.672 734.632 238.816C735 238.944 735.544 239.112 736.264 239.32C737.224 239.576 738.008 239.84 738.616 240.112C739.24 240.368 739.776 240.752 740.224 241.264C740.672 241.776 740.904 242.456 740.92 243.304C740.92 244.056 740.712 244.728 740.296 245.32C739.88 245.912 739.288 246.376 738.52 246.712C737.768 247.048 736.88 247.216 735.856 247.216ZM746.373 235.72C746.837 235.112 747.469 234.6 748.269 234.184C749.069 233.768 749.973 233.56 750.981 233.56C752.133 233.56 753.181 233.848 754.125 234.424C755.085 234.984 755.837 235.776 756.381 236.8C756.925 237.824 757.197 239 757.197 240.328C757.197 241.656 756.925 242.848 756.381 243.904C755.837 244.944 755.085 245.76 754.125 246.352C753.181 246.928 752.133 247.216 750.981 247.216C749.973 247.216 749.077 247.016 748.293 246.616C747.509 246.2 746.869 245.688 746.373 245.08V253.288H743.637V233.776H746.373V235.72ZM754.413 240.328C754.413 239.416 754.221 238.632 753.837 237.976C753.469 237.304 752.973 236.8 752.349 236.464C751.741 236.112 751.085 235.936 750.381 235.936C749.693 235.936 749.037 236.112 748.413 236.464C747.805 236.816 747.309 237.328 746.925 238C746.557 238.672 746.373 239.464 746.373 240.376C746.373 241.288 746.557 242.088 746.925 242.776C747.309 243.448 747.805 243.96 748.413 244.312C749.037 244.664 749.693 244.84 750.381 244.84C751.085 244.84 751.741 244.664 752.349 244.312C752.973 243.944 753.469 243.416 753.837 242.728C754.221 242.04 754.413 241.24 754.413 240.328ZM762.398 235.696C762.798 235.024 763.326 234.504 763.982 234.136C764.654 233.752 765.446 233.56 766.358 233.56V236.392H765.662C764.59 236.392 763.774 236.664 763.214 237.208C762.67 237.752 762.398 238.696 762.398 240.04V247H759.662V233.776H762.398V235.696ZM780.753 240.064C780.753 240.56 780.721 241.008 780.657 241.408H770.553C770.633 242.464 771.025 243.312 771.729 243.952C772.433 244.592 773.297 244.912 774.321 244.912C775.793 244.912 776.833 244.296 777.441 243.064H780.393C779.993 244.28 779.265 245.28 778.209 246.064C777.169 246.832 775.873 247.216 774.321 247.216C773.057 247.216 771.921 246.936 770.913 246.376C769.921 245.8 769.137 245 768.561 243.976C768.001 242.936 767.721 241.736 767.721 240.376C767.721 239.016 767.993 237.824 768.537 236.8C769.097 235.76 769.873 234.96 770.865 234.4C771.873 233.84 773.025 233.56 774.321 233.56C775.569 233.56 776.681 233.832 777.657 234.376C778.633 234.92 779.393 235.688 779.937 236.68C780.481 237.656 780.753 238.784 780.753 240.064ZM777.897 239.2C777.881 238.192 777.521 237.384 776.817 236.776C776.113 236.168 775.241 235.864 774.201 235.864C773.257 235.864 772.449 236.168 771.777 236.776C771.105 237.368 770.705 238.176 770.577 239.2H777.897ZM782.294 240.328C782.294 239 782.566 237.824 783.11 236.8C783.67 235.776 784.422 234.984 785.366 234.424C786.326 233.848 787.382 233.56 788.534 233.56C789.574 233.56 790.478 233.768 791.246 234.184C792.03 234.584 792.654 235.088 793.118 235.696V233.776H795.878V247H793.118V245.032C792.654 245.656 792.022 246.176 791.222 246.592C790.422 247.008 789.51 247.216 788.486 247.216C787.35 247.216 786.31 246.928 785.366 246.352C784.422 245.76 783.67 244.944 783.11 243.904C782.566 242.848 782.294 241.656 782.294 240.328ZM793.118 240.376C793.118 239.464 792.926 238.672 792.542 238C792.174 237.328 791.686 236.816 791.078 236.464C790.47 236.112 789.814 235.936 789.11 235.936C788.406 235.936 787.75 236.112 787.142 236.464C786.534 236.8 786.038 237.304 785.654 237.976C785.286 238.632 785.102 239.416 785.102 240.328C785.102 241.24 785.286 242.04 785.654 242.728C786.038 243.416 786.534 243.944 787.142 244.312C787.766 244.664 788.422 244.84 789.11 244.84C789.814 244.84 790.47 244.664 791.078 244.312C791.686 243.96 792.174 243.448 792.542 242.776C792.926 242.088 793.118 241.288 793.118 240.376ZM798.319 240.328C798.319 239 798.591 237.824 799.135 236.8C799.695 235.776 800.447 234.984 801.391 234.424C802.351 233.848 803.415 233.56 804.583 233.56C805.447 233.56 806.295 233.752 807.127 234.136C807.975 234.504 808.647 235 809.143 235.624V229.24H811.903V247H809.143V245.008C808.695 245.648 808.071 246.176 807.271 246.592C806.487 247.008 805.583 247.216 804.559 247.216C803.407 247.216 802.351 246.928 801.391 246.352C800.447 245.76 799.695 244.944 799.135 243.904C798.591 242.848 798.319 241.656 798.319 240.328ZM809.143 240.376C809.143 239.464 808.951 238.672 808.567 238C808.199 237.328 807.711 236.816 807.103 236.464C806.495 236.112 805.839 235.936 805.135 235.936C804.431 235.936 803.775 236.112 803.167 236.464C802.559 236.8 802.063 237.304 801.679 237.976C801.311 238.632 801.127 239.416 801.127 240.328C801.127 241.24 801.311 242.04 801.679 242.728C802.063 243.416 802.559 243.944 803.167 244.312C803.791 244.664 804.447 244.84 805.135 244.84C805.839 244.84 806.495 244.664 807.103 244.312C807.711 243.96 808.199 243.448 808.567 242.776C808.951 242.088 809.143 241.288 809.143 240.376ZM820.057 247.216C819.017 247.216 818.081 247.032 817.249 246.664C816.433 246.28 815.785 245.768 815.305 245.128C814.825 244.472 814.569 243.744 814.537 242.944H817.369C817.417 243.504 817.681 243.976 818.161 244.36C818.657 244.728 819.273 244.912 820.009 244.912C820.777 244.912 821.369 244.768 821.785 244.48C822.217 244.176 822.433 243.792 822.433 243.328C822.433 242.832 822.193 242.464 821.713 242.224C821.249 241.984 820.505 241.72 819.481 241.432C818.489 241.16 817.681 240.896 817.057 240.64C816.433 240.384 815.889 239.992 815.425 239.464C814.977 238.936 814.753 238.24 814.753 237.376C814.753 236.672 814.961 236.032 815.377 235.456C815.793 234.864 816.385 234.4 817.153 234.064C817.937 233.728 818.833 233.56 819.841 233.56C821.345 233.56 822.553 233.944 823.465 234.712C824.393 235.464 824.889 236.496 824.953 237.808H822.217C822.169 237.216 821.929 236.744 821.497 236.392C821.065 236.04 820.481 235.864 819.745 235.864C819.025 235.864 818.473 236 818.089 236.272C817.705 236.544 817.513 236.904 817.513 237.352C817.513 237.704 817.641 238 817.897 238.24C818.153 238.48 818.465 238.672 818.833 238.816C819.201 238.944 819.745 239.112 820.465 239.32C821.425 239.576 822.209 239.84 822.817 240.112C823.441 240.368 823.977 240.752 824.425 241.264C824.873 241.776 825.105 242.456 825.121 243.304C825.121 244.056 824.913 244.728 824.497 245.32C824.081 245.912 823.489 246.376 822.721 246.712C821.969 247.048 821.081 247.216 820.057 247.216ZM834.677 233.56C835.685 233.56 836.581 233.776 837.365 234.208C838.165 234.64 838.789 235.28 839.237 236.128C839.701 236.976 839.933 238 839.933 239.2V247H837.221V239.608C837.221 238.424 836.925 237.52 836.333 236.896C835.741 236.256 834.933 235.936 833.909 235.936C832.885 235.936 832.069 236.256 831.461 236.896C830.869 237.52 830.573 238.424 830.573 239.608V247H827.837V229.24H830.573V235.312C831.037 234.752 831.621 234.32 832.325 234.016C833.045 233.712 833.829 233.56 834.677 233.56ZM855.303 240.064C855.303 240.56 855.271 241.008 855.207 241.408H845.103C845.183 242.464 845.575 243.312 846.279 243.952C846.983 244.592 847.847 244.912 848.871 244.912C850.343 244.912 851.383 244.296 851.991 243.064H854.943C854.543 244.28 853.815 245.28 852.759 246.064C851.719 246.832 850.423 247.216 848.871 247.216C847.607 247.216 846.471 246.936 845.463 246.376C844.471 245.8 843.687 245 843.111 243.976C842.551 242.936 842.271 241.736 842.271 240.376C842.271 239.016 842.543 237.824 843.087 236.8C843.647 235.76 844.423 234.96 845.415 234.4C846.423 233.84 847.575 233.56 848.871 233.56C850.119 233.56 851.231 233.832 852.207 234.376C853.183 234.92 853.943 235.688 854.487 236.68C855.031 237.656 855.303 238.784 855.303 240.064ZM852.447 239.2C852.431 238.192 852.071 237.384 851.367 236.776C850.663 236.168 849.791 235.864 848.751 235.864C847.807 235.864 846.999 236.168 846.327 236.776C845.655 237.368 845.255 238.176 845.127 239.2H852.447ZM869.876 240.064C869.876 240.56 869.844 241.008 869.78 241.408H859.676C859.756 242.464 860.148 243.312 860.852 243.952C861.556 244.592 862.42 244.912 863.444 244.912C864.916 244.912 865.956 244.296 866.564 243.064H869.516C869.116 244.28 868.388 245.28 867.332 246.064C866.292 246.832 864.996 247.216 863.444 247.216C862.18 247.216 861.044 246.936 860.036 246.376C859.044 245.8 858.26 245 857.684 243.976C857.124 242.936 856.844 241.736 856.844 240.376C856.844 239.016 857.116 237.824 857.66 236.8C858.22 235.76 858.996 234.96 859.988 234.4C860.996 233.84 862.148 233.56 863.444 233.56C864.692 233.56 865.804 233.832 866.78 234.376C867.756 234.92 868.516 235.688 869.06 236.68C869.604 237.656 869.876 238.784 869.876 240.064ZM867.02 239.2C867.004 238.192 866.644 237.384 865.94 236.776C865.236 236.168 864.364 235.864 863.324 235.864C862.38 235.864 861.572 236.168 860.9 236.776C860.228 237.368 859.828 238.176 859.7 239.2H867.02ZM875.52 236.008V243.328C875.52 243.824 875.632 244.184 875.856 244.408C876.096 244.616 876.496 244.72 877.056 244.72H878.736V247H876.576C875.344 247 874.4 246.712 873.744 246.136C873.088 245.56 872.76 244.624 872.76 243.328V236.008H871.2V233.776H872.76V230.488H875.52V233.776H878.736V236.008H875.52ZM885.818 247.216C884.778 247.216 883.842 247.032 883.01 246.664C882.194 246.28 881.546 245.768 881.066 245.128C880.586 244.472 880.33 243.744 880.298 242.944H883.13C883.178 243.504 883.442 243.976 883.922 244.36C884.418 244.728 885.034 244.912 885.77 244.912C886.538 244.912 887.13 244.768 887.546 244.48C887.978 244.176 888.194 243.792 888.194 243.328C888.194 242.832 887.954 242.464 887.474 242.224C887.01 241.984 886.266 241.72 885.242 241.432C884.25 241.16 883.442 240.896 882.818 240.64C882.194 240.384 881.65 239.992 881.186 239.464C880.738 238.936 880.514 238.24 880.514 237.376C880.514 236.672 880.722 236.032 881.138 235.456C881.554 234.864 882.146 234.4 882.914 234.064C883.698 233.728 884.594 233.56 885.602 233.56C887.106 233.56 888.314 233.944 889.226 234.712C890.154 235.464 890.65 236.496 890.714 237.808H887.978C887.93 237.216 887.69 236.744 887.258 236.392C886.826 236.04 886.242 235.864 885.506 235.864C884.786 235.864 884.234 236 883.85 236.272C883.466 236.544 883.274 236.904 883.274 237.352C883.274 237.704 883.402 238 883.658 238.24C883.914 238.48 884.226 238.672 884.594 238.816C884.962 238.944 885.506 239.112 886.226 239.32C887.186 239.576 887.97 239.84 888.578 240.112C889.202 240.368 889.738 240.752 890.186 241.264C890.634 241.776 890.866 242.456 890.882 243.304C890.882 244.056 890.674 244.728 890.258 245.32C889.842 245.912 889.25 246.376 888.482 246.712C887.73 247.048 886.842 247.216 885.818 247.216ZM894.702 247.168C894.206 247.168 893.79 247 893.454 246.664C893.118 246.328 892.95 245.912 892.95 245.416C892.95 244.92 893.118 244.504 893.454 244.168C893.79 243.832 894.206 243.664 894.702 243.664C895.182 243.664 895.59 243.832 895.926 244.168C896.262 244.504 896.43 244.92 896.43 245.416C896.43 245.912 896.262 246.328 895.926 246.664C895.59 247 895.182 247.168 894.702 247.168Z" fill="white"/>
<path d="M326.858 259.086V261.179C327.423 261.23 327.927 261.361 328.37 261.571C328.813 261.776 329.189 262.017 329.497 262.292L328.643 263.181C328.382 262.948 328.099 262.763 327.796 262.628C327.497 262.488 327.185 262.402 326.858 262.369V265.274C327.385 265.451 327.857 265.664 328.272 265.911C328.692 266.158 329.023 266.473 329.266 266.856C329.513 267.234 329.637 267.705 329.637 268.27C329.637 268.741 329.532 269.18 329.322 269.586C329.112 269.992 328.799 270.333 328.384 270.608C327.973 270.879 327.465 271.054 326.858 271.133V273.191H325.843V271.175C325.171 271.128 324.581 270.974 324.072 270.713C323.563 270.452 323.146 270.165 322.819 269.852L323.659 268.907C323.962 269.192 324.291 269.427 324.646 269.614C325.001 269.801 325.4 269.91 325.843 269.943V266.436C324.952 266.137 324.284 265.771 323.841 265.337C323.402 264.898 323.183 264.352 323.183 263.699C323.183 263.274 323.283 262.882 323.484 262.523C323.689 262.164 323.99 261.865 324.387 261.627C324.784 261.384 325.269 261.235 325.843 261.179V259.086H326.858ZM326.858 266.807V269.887C327.665 269.719 328.069 269.217 328.069 268.382C328.069 268.032 327.983 267.733 327.81 267.486C327.637 267.234 327.32 267.008 326.858 266.807ZM325.843 262.39C325.498 262.451 325.222 262.584 325.017 262.789C324.812 262.994 324.709 263.26 324.709 263.587C324.709 263.876 324.784 264.124 324.933 264.329C325.082 264.53 325.386 264.728 325.843 264.924V262.39ZM416.734 269.985C417.224 269.985 417.614 269.899 417.903 269.726C418.192 269.549 418.337 269.306 418.337 268.998C418.337 268.797 418.295 268.627 418.211 268.487C418.127 268.342 417.959 268.212 417.707 268.095C417.455 267.974 417.072 267.848 416.559 267.717C416.074 267.591 415.647 267.442 415.278 267.269C414.914 267.096 414.632 266.872 414.431 266.597C414.23 266.322 414.13 265.967 414.13 265.533C414.13 265.108 414.249 264.737 414.487 264.42C414.725 264.103 415.066 263.855 415.509 263.678C415.957 263.501 416.482 263.412 417.084 263.412C417.705 263.412 418.246 263.494 418.708 263.657C419.17 263.82 419.564 264.023 419.891 264.266L419.233 265.253C418.944 265.062 418.626 264.905 418.281 264.784C417.94 264.663 417.555 264.602 417.126 264.602C416.627 264.602 416.267 264.677 416.048 264.826C415.833 264.975 415.726 265.174 415.726 265.421C415.726 265.603 415.78 265.757 415.887 265.883C415.999 266.004 416.19 266.119 416.461 266.226C416.732 266.329 417.114 266.45 417.609 266.59C418.09 266.721 418.507 266.875 418.862 267.052C419.221 267.229 419.499 267.465 419.695 267.759C419.896 268.048 419.996 268.426 419.996 268.893C419.996 269.425 419.842 269.861 419.534 270.202C419.231 270.538 418.829 270.788 418.33 270.951C417.835 271.11 417.303 271.189 416.734 271.189C416.048 271.189 415.455 271.091 414.956 270.895C414.457 270.694 414.037 270.445 413.696 270.146L414.529 269.194C414.818 269.427 415.15 269.619 415.523 269.768C415.896 269.913 416.3 269.985 416.734 269.985ZM423.602 267.808C423.635 268.312 423.742 268.725 423.924 269.047C424.106 269.364 424.344 269.598 424.638 269.747C424.937 269.896 425.264 269.971 425.618 269.971C425.982 269.971 426.318 269.915 426.626 269.803C426.934 269.691 427.245 269.532 427.557 269.327L428.236 270.265C427.891 270.545 427.487 270.769 427.025 270.937C426.563 271.105 426.069 271.189 425.541 271.189C424.776 271.189 424.127 271.026 423.595 270.699C423.068 270.372 422.667 269.917 422.391 269.334C422.116 268.751 421.978 268.076 421.978 267.311C421.978 266.569 422.114 265.906 422.384 265.323C422.655 264.735 423.042 264.271 423.546 263.93C424.05 263.585 424.652 263.412 425.352 263.412C426.01 263.412 426.575 263.561 427.046 263.86C427.522 264.159 427.889 264.583 428.145 265.134C428.407 265.68 428.537 266.338 428.537 267.108C428.537 267.234 428.533 267.36 428.523 267.486C428.519 267.607 428.512 267.715 428.502 267.808H423.602ZM425.366 264.574C424.876 264.574 424.47 264.749 424.148 265.099C423.831 265.449 423.647 265.995 423.595 266.737H427.018C427.004 266.042 426.855 265.507 426.57 265.134C426.29 264.761 425.889 264.574 425.366 264.574ZM430.555 271V263.608H431.906L432.025 264.567C432.333 264.189 432.697 263.902 433.117 263.706C433.537 263.51 433.969 263.412 434.412 263.412C435.103 263.412 435.618 263.606 435.959 263.993C436.304 264.376 436.477 264.915 436.477 265.61V271H434.909V266.387C434.909 265.958 434.883 265.612 434.832 265.351C434.781 265.09 434.678 264.901 434.524 264.784C434.375 264.667 434.151 264.609 433.852 264.609C433.614 264.609 433.388 264.66 433.173 264.763C432.958 264.866 432.762 265.001 432.585 265.169C432.408 265.332 432.254 265.507 432.123 265.694V271H430.555ZM443.149 260.465L444.717 260.64V271H443.338L443.226 270.09C442.974 270.44 442.673 270.711 442.323 270.902C441.973 271.093 441.581 271.189 441.147 271.189C440.513 271.189 439.99 271.028 439.579 270.706C439.169 270.379 438.863 269.924 438.662 269.341C438.466 268.753 438.368 268.074 438.368 267.304C438.368 266.553 438.485 265.885 438.718 265.302C438.952 264.714 439.285 264.252 439.719 263.916C440.153 263.58 440.676 263.412 441.287 263.412C441.675 263.412 442.022 263.482 442.33 263.622C442.638 263.757 442.911 263.956 443.149 264.217V260.465ZM441.7 264.616C441.173 264.616 440.762 264.835 440.468 265.274C440.174 265.708 440.027 266.385 440.027 267.304C440.027 267.934 440.088 268.447 440.209 268.844C440.331 269.236 440.506 269.525 440.734 269.712C440.963 269.894 441.238 269.985 441.56 269.985C441.915 269.985 442.223 269.882 442.484 269.677C442.746 269.472 442.967 269.224 443.149 268.935V265.435C442.967 265.174 442.755 264.973 442.512 264.833C442.27 264.688 441.999 264.616 441.7 264.616ZM462.908 267.262V265.974H468.41V267.262H462.908ZM456.244 267.262V265.974H461.746V267.262H456.244ZM475.391 269.901C475.736 269.901 476.058 269.843 476.357 269.726C476.655 269.605 476.94 269.448 477.211 269.257L477.939 270.265C477.617 270.54 477.225 270.764 476.763 270.937C476.305 271.105 475.832 271.189 475.342 271.189C474.586 271.189 473.939 271.03 473.403 270.713C472.866 270.391 472.455 269.941 472.171 269.362C471.886 268.783 471.744 268.109 471.744 267.339C471.744 266.588 471.886 265.918 472.171 265.33C472.46 264.737 472.875 264.271 473.417 263.93C473.958 263.585 474.609 263.412 475.37 263.412C475.874 263.412 476.338 263.487 476.763 263.636C477.187 263.785 477.577 264.007 477.932 264.301L477.211 265.288C476.921 265.087 476.625 264.936 476.322 264.833C476.023 264.726 475.715 264.672 475.398 264.672C474.814 264.672 474.336 264.887 473.963 265.316C473.594 265.745 473.41 266.42 473.41 267.339C473.41 267.955 473.494 268.452 473.662 268.83C473.834 269.203 474.07 269.476 474.369 269.649C474.667 269.817 475.008 269.901 475.391 269.901ZM482.77 269.985C483.26 269.985 483.65 269.899 483.939 269.726C484.228 269.549 484.373 269.306 484.373 268.998C484.373 268.797 484.331 268.627 484.247 268.487C484.163 268.342 483.995 268.212 483.743 268.095C483.491 267.974 483.108 267.848 482.595 267.717C482.11 267.591 481.683 267.442 481.314 267.269C480.95 267.096 480.668 266.872 480.467 266.597C480.266 266.322 480.166 265.967 480.166 265.533C480.166 265.108 480.285 264.737 480.523 264.42C480.761 264.103 481.102 263.855 481.545 263.678C481.993 263.501 482.518 263.412 483.12 263.412C483.741 263.412 484.282 263.494 484.744 263.657C485.206 263.82 485.6 264.023 485.927 264.266L485.269 265.253C484.98 265.062 484.662 264.905 484.317 264.784C483.976 264.663 483.591 264.602 483.162 264.602C482.663 264.602 482.303 264.677 482.084 264.826C481.869 264.975 481.762 265.174 481.762 265.421C481.762 265.603 481.816 265.757 481.923 265.883C482.035 266.004 482.226 266.119 482.497 266.226C482.768 266.329 483.15 266.45 483.645 266.59C484.126 266.721 484.543 266.875 484.898 267.052C485.257 267.229 485.535 267.465 485.731 267.759C485.932 268.048 486.032 268.426 486.032 268.893C486.032 269.425 485.878 269.861 485.57 270.202C485.267 270.538 484.865 270.788 484.366 270.951C483.871 271.11 483.339 271.189 482.77 271.189C482.084 271.189 481.491 271.091 480.992 270.895C480.493 270.694 480.073 270.445 479.732 270.146L480.565 269.194C480.854 269.427 481.186 269.619 481.559 269.768C481.932 269.913 482.336 269.985 482.77 269.985ZM494.812 263.608L492.208 271H490.374L487.77 263.608H489.45L491.326 269.698L493.209 263.608H494.812ZM509.34 260.465C509.792 260.465 510.196 260.505 510.551 260.584C510.91 260.659 511.241 260.761 511.545 260.892L511.083 261.977C510.835 261.874 510.576 261.8 510.306 261.753C510.04 261.706 509.769 261.683 509.494 261.683C509.008 261.683 508.649 261.776 508.416 261.963C508.182 262.145 508.066 262.434 508.066 262.831V264.14H510.537L510.369 265.295H508.066V271H506.505V265.295H504.825V264.14H506.505V262.817C506.505 262.35 506.621 261.942 506.855 261.592C507.093 261.237 507.424 260.962 507.849 260.766C508.273 260.565 508.77 260.465 509.34 260.465ZM517.139 264.14V269.852H519.148V271H513.359V269.852H515.571V265.295H513.429V264.14H517.139ZM516.047 260.437C516.355 260.437 516.603 260.533 516.789 260.724C516.981 260.911 517.076 261.142 517.076 261.417C517.076 261.702 516.981 261.94 516.789 262.131C516.603 262.322 516.355 262.418 516.047 262.418C515.749 262.418 515.504 262.322 515.312 262.131C515.121 261.94 515.025 261.702 515.025 261.417C515.025 261.142 515.121 260.911 515.312 260.724C515.504 260.533 515.749 260.437 516.047 260.437ZM524.603 260.64V268.984C524.603 269.325 524.705 269.567 524.911 269.712C525.121 269.852 525.391 269.922 525.723 269.922C525.937 269.922 526.14 269.899 526.332 269.852C526.523 269.805 526.71 269.747 526.892 269.677L527.291 270.769C527.071 270.881 526.801 270.979 526.479 271.063C526.161 271.147 525.797 271.189 525.387 271.189C524.645 271.189 524.066 270.981 523.651 270.566C523.24 270.146 523.035 269.572 523.035 268.844V261.795H520.802V260.64H524.603ZM530.911 267.808C530.944 268.312 531.051 268.725 531.233 269.047C531.415 269.364 531.653 269.598 531.947 269.747C532.246 269.896 532.573 269.971 532.927 269.971C533.291 269.971 533.627 269.915 533.935 269.803C534.243 269.691 534.554 269.532 534.866 269.327L535.545 270.265C535.2 270.545 534.796 270.769 534.334 270.937C533.872 271.105 533.378 271.189 532.85 271.189C532.085 271.189 531.436 271.026 530.904 270.699C530.377 270.372 529.976 269.917 529.7 269.334C529.425 268.751 529.287 268.076 529.287 267.311C529.287 266.569 529.423 265.906 529.693 265.323C529.964 264.735 530.351 264.271 530.855 263.93C531.359 263.585 531.961 263.412 532.661 263.412C533.319 263.412 533.884 263.561 534.355 263.86C534.831 264.159 535.198 264.583 535.454 265.134C535.716 265.68 535.846 266.338 535.846 267.108C535.846 267.234 535.842 267.36 535.832 267.486C535.828 267.607 535.821 267.715 535.811 267.808H530.911ZM532.675 264.574C532.185 264.574 531.779 264.749 531.457 265.099C531.14 265.449 530.956 265.995 530.904 266.737H534.327C534.313 266.042 534.164 265.507 533.879 265.134C533.599 264.761 533.198 264.574 532.675 264.574ZM539.46 269.831C539.46 269.579 539.518 269.353 539.635 269.152C539.756 268.947 539.919 268.783 540.125 268.662C540.33 268.541 540.559 268.48 540.811 268.48C541.067 268.48 541.298 268.541 541.504 268.662C541.709 268.783 541.87 268.947 541.987 269.152C542.108 269.353 542.169 269.579 542.169 269.831C542.169 270.078 542.108 270.307 541.987 270.517C541.87 270.722 541.709 270.886 541.504 271.007C541.298 271.128 541.067 271.189 540.811 271.189C540.559 271.189 540.33 271.128 540.125 271.007C539.919 270.886 539.756 270.722 539.635 270.517C539.518 270.307 539.46 270.078 539.46 269.831ZM549.681 269.901C550.027 269.901 550.349 269.843 550.647 269.726C550.946 269.605 551.231 269.448 551.501 269.257L552.229 270.265C551.907 270.54 551.515 270.764 551.053 270.937C550.596 271.105 550.122 271.189 549.632 271.189C548.876 271.189 548.23 271.03 547.693 270.713C547.157 270.391 546.746 269.941 546.461 269.362C546.177 268.783 546.034 268.109 546.034 267.339C546.034 266.588 546.177 265.918 546.461 265.33C546.751 264.737 547.166 264.271 547.707 263.93C548.249 263.585 548.9 263.412 549.66 263.412C550.164 263.412 550.629 263.487 551.053 263.636C551.478 263.785 551.868 264.007 552.222 264.301L551.501 265.288C551.212 265.087 550.916 264.936 550.612 264.833C550.314 264.726 550.006 264.672 549.688 264.672C549.105 264.672 548.627 264.887 548.253 265.316C547.885 265.745 547.7 266.42 547.7 267.339C547.7 267.955 547.784 268.452 547.952 268.83C548.125 269.203 548.361 269.476 548.659 269.649C548.958 269.817 549.299 269.901 549.681 269.901ZM557.061 269.985C557.551 269.985 557.941 269.899 558.23 269.726C558.519 269.549 558.664 269.306 558.664 268.998C558.664 268.797 558.622 268.627 558.538 268.487C558.454 268.342 558.286 268.212 558.034 268.095C557.782 267.974 557.399 267.848 556.886 267.717C556.401 267.591 555.974 267.442 555.605 267.269C555.241 267.096 554.959 266.872 554.758 266.597C554.557 266.322 554.457 265.967 554.457 265.533C554.457 265.108 554.576 264.737 554.814 264.42C555.052 264.103 555.393 263.855 555.836 263.678C556.284 263.501 556.809 263.412 557.411 263.412C558.032 263.412 558.573 263.494 559.035 263.657C559.497 263.82 559.891 264.023 560.218 264.266L559.56 265.253C559.271 265.062 558.953 264.905 558.608 264.784C558.267 264.663 557.882 264.602 557.453 264.602C556.954 264.602 556.594 264.677 556.375 264.826C556.16 264.975 556.053 265.174 556.053 265.421C556.053 265.603 556.107 265.757 556.214 265.883C556.326 266.004 556.517 266.119 556.788 266.226C557.059 266.329 557.441 266.45 557.936 266.59C558.417 266.721 558.834 266.875 559.189 267.052C559.548 267.229 559.826 267.465 560.022 267.759C560.223 268.048 560.323 268.426 560.323 268.893C560.323 269.425 560.169 269.861 559.861 270.202C559.558 270.538 559.156 270.788 558.657 270.951C558.162 271.11 557.63 271.189 557.061 271.189C556.375 271.189 555.782 271.091 555.283 270.895C554.784 270.694 554.364 270.445 554.023 270.146L554.856 269.194C555.145 269.427 555.477 269.619 555.85 269.768C556.223 269.913 556.627 269.985 557.061 269.985ZM569.102 263.608L566.498 271H564.664L562.06 263.608H563.74L565.616 269.698L567.499 263.608H569.102ZM586.726 267.262V265.974H592.228V267.262H586.726ZM580.062 267.262V265.974H585.564V267.262H580.062ZM596.948 267.808C596.98 268.312 597.088 268.725 597.27 269.047C597.452 269.364 597.69 269.598 597.984 269.747C598.282 269.896 598.609 269.971 598.964 269.971C599.328 269.971 599.664 269.915 599.972 269.803C600.28 269.691 600.59 269.532 600.903 269.327L601.582 270.265C601.236 270.545 600.833 270.769 600.371 270.937C599.909 271.105 599.414 271.189 598.887 271.189C598.121 271.189 597.473 271.026 596.941 270.699C596.413 270.372 596.012 269.917 595.737 269.334C595.461 268.751 595.324 268.076 595.324 267.311C595.324 266.569 595.459 265.906 595.73 265.323C596 264.735 596.388 264.271 596.892 263.93C597.396 263.585 597.998 263.412 598.698 263.412C599.356 263.412 599.92 263.561 600.392 263.86C600.868 264.159 601.234 264.583 601.491 265.134C601.752 265.68 601.883 266.338 601.883 267.108C601.883 267.234 601.878 267.36 601.869 267.486C601.864 267.607 601.857 267.715 601.848 267.808H596.948ZM598.712 264.574C598.222 264.574 597.816 264.749 597.494 265.099C597.176 265.449 596.992 265.995 596.941 266.737H600.364C600.35 266.042 600.2 265.507 599.916 265.134C599.636 264.761 599.234 264.574 598.712 264.574ZM603.9 271V263.608H605.251L605.37 264.567C605.678 264.189 606.042 263.902 606.462 263.706C606.882 263.51 607.314 263.412 607.757 263.412C608.448 263.412 608.963 263.606 609.304 263.993C609.649 264.376 609.822 264.915 609.822 265.61V271H608.254V266.387C608.254 265.958 608.228 265.612 608.177 265.351C608.126 265.09 608.023 264.901 607.869 264.784C607.72 264.667 607.496 264.609 607.197 264.609C606.959 264.609 606.733 264.66 606.518 264.763C606.303 264.866 606.107 265.001 605.93 265.169C605.753 265.332 605.599 265.507 605.468 265.694V271H603.9ZM618.63 263.608L616.026 271H614.192L611.588 263.608H613.268L615.144 269.698L617.027 263.608H618.63ZM630.26 269.831C630.26 269.579 630.318 269.353 630.435 269.152C630.556 268.947 630.719 268.783 630.925 268.662C631.13 268.541 631.359 268.48 631.611 268.48C631.867 268.48 632.098 268.541 632.304 268.662C632.509 268.783 632.67 268.947 632.787 269.152C632.908 269.353 632.969 269.579 632.969 269.831C632.969 270.078 632.908 270.307 632.787 270.517C632.67 270.722 632.509 270.886 632.304 271.007C632.098 271.128 631.867 271.189 631.611 271.189C631.359 271.189 631.13 271.128 630.925 271.007C630.719 270.886 630.556 270.722 630.435 270.517C630.318 270.307 630.26 270.078 630.26 269.831ZM637.527 272.491L636.281 271.931L642.231 259.632L643.463 260.213L637.527 272.491ZM648.736 269.901C649.081 269.901 649.403 269.843 649.702 269.726C650 269.605 650.285 269.448 650.556 269.257L651.284 270.265C650.962 270.54 650.57 270.764 650.108 270.937C649.65 271.105 649.177 271.189 648.687 271.189C647.931 271.189 647.284 271.03 646.748 270.713C646.211 270.391 645.8 269.941 645.516 269.362C645.231 268.783 645.089 268.109 645.089 267.339C645.089 266.588 645.231 265.918 645.516 265.33C645.805 264.737 646.22 264.271 646.762 263.93C647.303 263.585 647.954 263.412 648.715 263.412C649.219 263.412 649.683 263.487 650.108 263.636C650.532 263.785 650.922 264.007 651.277 264.301L650.556 265.288C650.266 265.087 649.97 264.936 649.667 264.833C649.368 264.726 649.06 264.672 648.743 264.672C648.159 264.672 647.681 264.887 647.308 265.316C646.939 265.745 646.755 266.42 646.755 267.339C646.755 267.955 646.839 268.452 647.007 268.83C647.179 269.203 647.415 269.476 647.714 269.649C648.012 269.817 648.353 269.901 648.736 269.901ZM656.388 263.412C657.112 263.412 657.721 263.573 658.215 263.895C658.71 264.217 659.083 264.667 659.335 265.246C659.592 265.825 659.72 266.506 659.72 267.29C659.72 268.069 659.59 268.753 659.328 269.341C659.072 269.924 658.694 270.379 658.194 270.706C657.7 271.028 657.095 271.189 656.381 271.189C655.667 271.189 655.061 271.033 654.561 270.72C654.067 270.403 653.689 269.952 653.427 269.369C653.171 268.786 653.042 268.097 653.042 267.304C653.042 266.534 653.171 265.857 653.427 265.274C653.689 264.691 654.069 264.236 654.568 263.909C655.068 263.578 655.674 263.412 656.388 263.412ZM656.388 264.63C655.824 264.63 655.399 264.847 655.114 265.281C654.83 265.71 654.687 266.385 654.687 267.304C654.687 268.219 654.827 268.893 655.107 269.327C655.392 269.761 655.817 269.978 656.381 269.978C656.946 269.978 657.368 269.761 657.648 269.327C657.933 268.893 658.075 268.214 658.075 267.29C658.075 266.38 657.935 265.71 657.655 265.281C657.375 264.847 656.953 264.63 656.388 264.63ZM661.682 271V263.608H663.033L663.152 264.567C663.46 264.189 663.824 263.902 664.244 263.706C664.664 263.51 665.095 263.412 665.539 263.412C666.229 263.412 666.745 263.606 667.086 263.993C667.431 264.376 667.604 264.915 667.604 265.61V271H666.036V266.387C666.036 265.958 666.01 265.612 665.959 265.351C665.907 265.09 665.805 264.901 665.651 264.784C665.501 264.667 665.277 264.609 664.979 264.609C664.741 264.609 664.514 264.66 664.3 264.763C664.085 264.866 663.889 265.001 663.712 265.169C663.534 265.332 663.38 265.507 663.25 265.694V271H661.682ZM674.43 260.465C674.883 260.465 675.287 260.505 675.641 260.584C676.001 260.659 676.332 260.761 676.635 260.892L676.173 261.977C675.926 261.874 675.667 261.8 675.396 261.753C675.13 261.706 674.86 261.683 674.584 261.683C674.099 261.683 673.74 261.776 673.506 261.963C673.273 262.145 673.156 262.434 673.156 262.831V264.14H675.627L675.459 265.295H673.156V271H671.595V265.295H669.915V264.14H671.595V262.817C671.595 262.35 671.712 261.942 671.945 261.592C672.183 261.237 672.515 260.962 672.939 260.766C673.364 260.565 673.861 260.465 674.43 260.465ZM682.23 264.14V269.852H684.239V271H678.45V269.852H680.662V265.295H678.52V264.14H682.23ZM681.138 260.437C681.446 260.437 681.693 260.533 681.88 260.724C682.071 260.911 682.167 261.142 682.167 261.417C682.167 261.702 682.071 261.94 681.88 262.131C681.693 262.322 681.446 262.418 681.138 262.418C680.839 262.418 680.594 262.322 680.403 262.131C680.212 261.94 680.116 261.702 680.116 261.417C680.116 261.142 680.212 260.911 680.403 260.724C680.594 260.533 680.839 260.437 681.138 260.437ZM692.668 262.67L693.088 263.972C692.794 264.07 692.47 264.135 692.115 264.168C691.765 264.201 691.373 264.217 690.939 264.217C691.383 264.413 691.716 264.665 691.94 264.973C692.164 265.276 692.276 265.65 692.276 266.093C692.276 266.574 692.16 267.003 691.926 267.381C691.693 267.759 691.359 268.055 690.925 268.27C690.491 268.485 689.971 268.592 689.364 268.592C689.15 268.592 688.963 268.583 688.804 268.564C688.65 268.545 688.499 268.515 688.349 268.473C688.256 268.538 688.177 268.627 688.111 268.739C688.051 268.846 688.02 268.961 688.02 269.082C688.02 269.231 688.081 269.362 688.202 269.474C688.328 269.581 688.576 269.635 688.944 269.635H690.232C690.76 269.635 691.224 269.726 691.625 269.908C692.031 270.085 692.349 270.33 692.577 270.643C692.811 270.951 692.927 271.301 692.927 271.693C692.927 272.43 692.61 273.002 691.975 273.408C691.341 273.814 690.426 274.017 689.231 274.017C688.387 274.017 687.724 273.931 687.243 273.758C686.763 273.585 686.424 273.329 686.228 272.988C686.032 272.647 685.934 272.23 685.934 271.735H687.341C687.341 271.992 687.39 272.204 687.488 272.372C687.591 272.54 687.78 272.666 688.055 272.75C688.331 272.834 688.727 272.876 689.245 272.876C689.763 272.876 690.174 272.832 690.477 272.743C690.785 272.659 691.007 272.535 691.142 272.372C691.282 272.213 691.352 272.022 691.352 271.798C691.352 271.499 691.222 271.268 690.96 271.105C690.699 270.942 690.349 270.86 689.91 270.86H688.643C687.943 270.86 687.43 270.718 687.103 270.433C686.781 270.148 686.62 269.817 686.62 269.439C686.62 269.187 686.69 268.944 686.83 268.711C686.975 268.478 687.18 268.275 687.446 268.102C687.003 267.869 686.679 267.586 686.473 267.255C686.273 266.919 686.172 266.513 686.172 266.037C686.172 265.514 686.303 265.057 686.564 264.665C686.826 264.273 687.187 263.967 687.649 263.748C688.116 263.529 688.653 263.419 689.259 263.419C689.852 263.419 690.347 263.389 690.743 263.328C691.14 263.263 691.485 263.172 691.779 263.055C692.078 262.938 692.374 262.81 692.668 262.67ZM689.273 264.497C688.774 264.497 688.398 264.639 688.146 264.924C687.894 265.204 687.768 265.57 687.768 266.023C687.768 266.49 687.897 266.865 688.153 267.15C688.415 267.43 688.795 267.57 689.294 267.57C689.756 267.57 690.109 267.435 690.351 267.164C690.599 266.893 690.722 266.508 690.722 266.009C690.722 265.505 690.601 265.127 690.358 264.875C690.116 264.623 689.754 264.497 689.273 264.497ZM696.296 269.831C696.296 269.579 696.354 269.353 696.471 269.152C696.592 268.947 696.756 268.783 696.961 268.662C697.166 268.541 697.395 268.48 697.647 268.48C697.904 268.48 698.135 268.541 698.34 268.662C698.545 268.783 698.706 268.947 698.823 269.152C698.944 269.353 699.005 269.579 699.005 269.831C699.005 270.078 698.944 270.307 698.823 270.517C698.706 270.722 698.545 270.886 698.34 271.007C698.135 271.128 697.904 271.189 697.647 271.189C697.395 271.189 697.166 271.128 696.961 271.007C696.756 270.886 696.592 270.722 696.471 270.517C696.354 270.307 696.296 270.078 696.296 269.831ZM708.085 263.608V269.446C708.085 270.365 707.894 271.128 707.511 271.735C707.133 272.342 706.578 272.825 705.845 273.184C705.113 273.548 704.219 273.826 703.164 274.017L702.912 272.813C703.645 272.673 704.282 272.479 704.823 272.232C705.365 271.985 705.782 271.646 706.076 271.217C706.37 270.788 706.517 270.232 706.517 269.551V264.756H703.598V263.608H708.085ZM706.86 259.989C707.164 259.989 707.411 260.082 707.602 260.269C707.794 260.456 707.889 260.689 707.889 260.969C707.889 261.249 707.794 261.485 707.602 261.676C707.411 261.867 707.164 261.963 706.86 261.963C706.557 261.963 706.31 261.867 706.118 261.676C705.932 261.485 705.838 261.249 705.838 260.969C705.838 260.689 705.932 260.456 706.118 260.269C706.31 260.082 706.557 259.989 706.86 259.989ZM713.897 269.985C714.387 269.985 714.777 269.899 715.066 269.726C715.355 269.549 715.5 269.306 715.5 268.998C715.5 268.797 715.458 268.627 715.374 268.487C715.29 268.342 715.122 268.212 714.87 268.095C714.618 267.974 714.235 267.848 713.722 267.717C713.237 267.591 712.81 267.442 712.441 267.269C712.077 267.096 711.795 266.872 711.594 266.597C711.393 266.322 711.293 265.967 711.293 265.533C711.293 265.108 711.412 264.737 711.65 264.42C711.888 264.103 712.229 263.855 712.672 263.678C713.12 263.501 713.645 263.412 714.247 263.412C714.868 263.412 715.409 263.494 715.871 263.657C716.333 263.82 716.727 264.023 717.054 264.266L716.396 265.253C716.107 265.062 715.789 264.905 715.444 264.784C715.103 264.663 714.718 264.602 714.289 264.602C713.79 264.602 713.43 264.677 713.211 264.826C712.996 264.975 712.889 265.174 712.889 265.421C712.889 265.603 712.943 265.757 713.05 265.883C713.162 266.004 713.353 266.119 713.624 266.226C713.895 266.329 714.277 266.45 714.772 266.59C715.253 266.721 715.67 266.875 716.025 267.052C716.384 267.229 716.662 267.465 716.858 267.759C717.059 268.048 717.159 268.426 717.159 268.893C717.159 269.425 717.005 269.861 716.697 270.202C716.394 270.538 715.992 270.788 715.493 270.951C714.998 271.11 714.466 271.189 713.897 271.189C713.211 271.189 712.618 271.091 712.119 270.895C711.62 270.694 711.2 270.445 710.859 270.146L711.692 269.194C711.981 269.427 712.313 269.619 712.686 269.768C713.059 269.913 713.463 269.985 713.897 269.985ZM722.424 263.412C723.148 263.412 723.757 263.573 724.251 263.895C724.746 264.217 725.119 264.667 725.371 265.246C725.628 265.825 725.756 266.506 725.756 267.29C725.756 268.069 725.626 268.753 725.364 269.341C725.108 269.924 724.73 270.379 724.23 270.706C723.736 271.028 723.131 271.189 722.417 271.189C721.703 271.189 721.097 271.033 720.597 270.72C720.103 270.403 719.725 269.952 719.463 269.369C719.207 268.786 719.078 268.097 719.078 267.304C719.078 266.534 719.207 265.857 719.463 265.274C719.725 264.691 720.105 264.236 720.604 263.909C721.104 263.578 721.71 263.412 722.424 263.412ZM722.424 264.63C721.86 264.63 721.435 264.847 721.15 265.281C720.866 265.71 720.723 266.385 720.723 267.304C720.723 268.219 720.863 268.893 721.143 269.327C721.428 269.761 721.853 269.978 722.417 269.978C722.982 269.978 723.404 269.761 723.684 269.327C723.969 268.893 724.111 268.214 724.111 267.29C724.111 266.38 723.971 265.71 723.691 265.281C723.411 264.847 722.989 264.63 722.424 264.63ZM727.718 271V263.608H729.069L729.188 264.567C729.496 264.189 729.86 263.902 730.28 263.706C730.7 263.51 731.132 263.412 731.575 263.412C732.266 263.412 732.781 263.606 733.122 263.993C733.467 264.376 733.64 264.915 733.64 265.61V271H732.072V266.387C732.072 265.958 732.046 265.612 731.995 265.351C731.944 265.09 731.841 264.901 731.687 264.784C731.538 264.667 731.314 264.609 731.015 264.609C730.777 264.609 730.551 264.66 730.336 264.763C730.121 264.866 729.925 265.001 729.748 265.169C729.571 265.332 729.417 265.507 729.286 265.694V271H727.718ZM744.29 267.822V266.534H750.072V267.822H744.29ZM758.656 270.608C758.385 270.781 758.061 270.921 757.683 271.028C757.305 271.135 756.91 271.189 756.5 271.189C755.641 271.189 754.988 270.967 754.54 270.524C754.096 270.076 753.875 269.488 753.875 268.76V264.749H752.23V263.608H753.875V261.956L755.443 261.767V263.608H757.935L757.76 264.749H755.443V268.746C755.443 269.143 755.541 269.439 755.737 269.635C755.937 269.826 756.264 269.922 756.717 269.922C756.987 269.922 757.237 269.889 757.466 269.824C757.694 269.759 757.902 269.675 758.089 269.572L758.656 270.608ZM770.587 269.831C770.587 269.579 770.645 269.353 770.762 269.152C770.883 268.947 771.046 268.783 771.252 268.662C771.457 268.541 771.686 268.48 771.938 268.48C772.194 268.48 772.425 268.541 772.631 268.662C772.836 268.783 772.997 268.947 773.114 269.152C773.235 269.353 773.296 269.579 773.296 269.831C773.296 270.078 773.235 270.307 773.114 270.517C772.997 270.722 772.836 270.886 772.631 271.007C772.425 271.128 772.194 271.189 771.938 271.189C771.686 271.189 771.457 271.128 771.252 271.007C771.046 270.886 770.883 270.722 770.762 270.517C770.645 270.307 770.587 270.078 770.587 269.831ZM777.854 272.491L776.608 271.931L782.558 259.632L783.79 260.213L777.854 272.491ZM786.802 267.808C786.834 268.312 786.942 268.725 787.124 269.047C787.306 269.364 787.544 269.598 787.838 269.747C788.136 269.896 788.463 269.971 788.818 269.971C789.182 269.971 789.518 269.915 789.826 269.803C790.134 269.691 790.444 269.532 790.757 269.327L791.436 270.265C791.09 270.545 790.687 270.769 790.225 270.937C789.763 271.105 789.268 271.189 788.741 271.189C787.975 271.189 787.327 271.026 786.795 270.699C786.267 270.372 785.866 269.917 785.591 269.334C785.315 268.751 785.178 268.076 785.178 267.311C785.178 266.569 785.313 265.906 785.584 265.323C785.854 264.735 786.242 264.271 786.746 263.93C787.25 263.585 787.852 263.412 788.552 263.412C789.21 263.412 789.774 263.561 790.246 263.86C790.722 264.159 791.088 264.583 791.345 265.134C791.606 265.68 791.737 266.338 791.737 267.108C791.737 267.234 791.732 267.36 791.723 267.486C791.718 267.607 791.711 267.715 791.702 267.808H786.802ZM788.566 264.574C788.076 264.574 787.67 264.749 787.348 265.099C787.03 265.449 786.846 265.995 786.795 266.737H790.218C790.204 266.042 790.054 265.507 789.77 265.134C789.49 264.761 789.088 264.574 788.566 264.574ZM798.85 263.412C799.13 263.412 799.382 263.473 799.606 263.594C799.83 263.715 800.005 263.928 800.131 264.231C800.262 264.534 800.327 264.959 800.327 265.505V271H798.934V265.722C798.934 265.335 798.906 265.057 798.85 264.889C798.799 264.721 798.661 264.637 798.437 264.637C798.26 264.637 798.08 264.693 797.898 264.805C797.716 264.912 797.532 265.099 797.345 265.365V271H796.078V265.722C796.078 265.335 796.05 265.057 795.994 264.889C795.943 264.721 795.805 264.637 795.581 264.637C795.399 264.637 795.217 264.693 795.035 264.805C794.858 264.912 794.676 265.099 794.489 265.365V271H793.089V263.608H794.272L794.377 264.406C794.587 264.112 794.816 263.874 795.063 263.692C795.311 263.505 795.609 263.412 795.959 263.412C796.239 263.412 796.494 263.482 796.722 263.622C796.951 263.762 797.119 264.007 797.226 264.357C797.432 264.077 797.665 263.851 797.926 263.678C798.188 263.501 798.496 263.412 798.85 263.412ZM807.658 269.187C807.658 269.476 807.702 269.689 807.791 269.824C807.879 269.955 808.022 270.053 808.218 270.118L807.868 271.182C807.504 271.14 807.191 271.04 806.93 270.881C806.668 270.722 806.47 270.482 806.335 270.16C806.064 270.501 805.721 270.757 805.306 270.93C804.89 271.103 804.447 271.189 803.976 271.189C803.229 271.189 802.636 270.979 802.198 270.559C801.764 270.134 801.547 269.579 801.547 268.893C801.547 268.114 801.85 267.514 802.457 267.094C803.063 266.674 803.931 266.464 805.061 266.464H806.118V265.981C806.118 265.505 805.973 265.162 805.684 264.952C805.399 264.742 804.995 264.637 804.473 264.637C804.23 264.637 803.936 264.67 803.591 264.735C803.245 264.796 802.884 264.891 802.506 265.022L802.121 263.916C802.583 263.743 803.035 263.617 803.479 263.538C803.922 263.454 804.333 263.412 804.711 263.412C805.7 263.412 806.437 263.631 806.923 264.07C807.413 264.509 807.658 265.115 807.658 265.89V269.187ZM804.452 270.034C804.769 270.034 805.079 269.95 805.383 269.782C805.686 269.614 805.931 269.378 806.118 269.075V267.444H805.25C804.512 267.444 803.985 267.568 803.668 267.815C803.35 268.058 803.192 268.394 803.192 268.823C803.192 269.215 803.297 269.516 803.507 269.726C803.721 269.931 804.036 270.034 804.452 270.034ZM814.302 263.608V269.852H816.311V271H810.522V269.852H812.734V264.756H810.592V263.608H814.302ZM813.21 259.989C813.518 259.989 813.766 260.082 813.952 260.269C814.144 260.456 814.239 260.689 814.239 260.969C814.239 261.249 814.144 261.485 813.952 261.676C813.766 261.867 813.518 261.963 813.21 261.963C812.912 261.963 812.667 261.867 812.475 261.676C812.284 261.485 812.188 261.249 812.188 260.969C812.188 260.689 812.284 260.456 812.475 260.269C812.667 260.082 812.912 259.989 813.21 259.989ZM821.766 260.64V268.984C821.766 269.325 821.869 269.567 822.074 269.712C822.284 269.852 822.555 269.922 822.886 269.922C823.101 269.922 823.304 269.899 823.495 269.852C823.686 269.805 823.873 269.747 824.055 269.677L824.454 270.769C824.235 270.881 823.964 270.979 823.642 271.063C823.325 271.147 822.961 271.189 822.55 271.189C821.808 271.189 821.229 270.981 820.814 270.566C820.403 270.146 820.198 269.572 820.198 268.844V261.795H817.965V260.64H821.766ZM828.368 269.831C828.368 269.579 828.427 269.353 828.543 269.152C828.665 268.947 828.828 268.783 829.033 268.662C829.239 268.541 829.467 268.48 829.719 268.48C829.976 268.48 830.207 268.541 830.412 268.662C830.618 268.783 830.779 268.947 830.895 269.152C831.017 269.353 831.077 269.579 831.077 269.831C831.077 270.078 831.017 270.307 830.895 270.517C830.779 270.722 830.618 270.886 830.412 271.007C830.207 271.128 829.976 271.189 829.719 271.189C829.467 271.189 829.239 271.128 829.033 271.007C828.828 270.886 828.665 270.722 828.543 270.517C828.427 270.307 828.368 270.078 828.368 269.831ZM836.595 260.486V264.511C836.894 264.147 837.244 263.874 837.645 263.692C838.046 263.505 838.459 263.412 838.884 263.412C839.579 263.412 840.097 263.606 840.438 263.993C840.779 264.376 840.949 264.915 840.949 265.61V271H839.381V265.855C839.381 265.412 839.297 265.094 839.129 264.903C838.961 264.707 838.69 264.609 838.317 264.609C838.084 264.609 837.86 264.663 837.645 264.77C837.435 264.873 837.239 265.008 837.057 265.176C836.88 265.344 836.726 265.524 836.595 265.715V271H835.027V260.654L836.595 260.486ZM849.455 270.608C849.185 270.781 848.86 270.921 848.482 271.028C848.104 271.135 847.71 271.189 847.299 271.189C846.441 271.189 845.787 270.967 845.339 270.524C844.896 270.076 844.674 269.488 844.674 268.76V264.749H843.029V263.608H844.674V261.956L846.242 261.767V263.608H848.734L848.559 264.749H846.242V268.746C846.242 269.143 846.34 269.439 846.536 269.635C846.737 269.826 847.064 269.922 847.516 269.922C847.787 269.922 848.037 269.889 848.265 269.824C848.494 269.759 848.702 269.675 848.888 269.572L849.455 270.608ZM856.632 263.412C856.912 263.412 857.164 263.473 857.388 263.594C857.612 263.715 857.787 263.928 857.913 264.231C858.044 264.534 858.109 264.959 858.109 265.505V271H856.716V265.722C856.716 265.335 856.688 265.057 856.632 264.889C856.581 264.721 856.443 264.637 856.219 264.637C856.042 264.637 855.862 264.693 855.68 264.805C855.498 264.912 855.314 265.099 855.127 265.365V271H853.86V265.722C853.86 265.335 853.832 265.057 853.776 264.889C853.725 264.721 853.587 264.637 853.363 264.637C853.181 264.637 852.999 264.693 852.817 264.805C852.64 264.912 852.458 265.099 852.271 265.365V271H850.871V263.608H852.054L852.159 264.406C852.369 264.112 852.598 263.874 852.845 263.692C853.092 263.505 853.391 263.412 853.741 263.412C854.021 263.412 854.275 263.482 854.504 263.622C854.733 263.762 854.901 264.007 855.008 264.357C855.213 264.077 855.447 263.851 855.708 263.678C855.969 263.501 856.277 263.412 856.632 263.412ZM863.039 260.64V268.984C863.039 269.325 863.141 269.567 863.347 269.712C863.557 269.852 863.827 269.922 864.159 269.922C864.373 269.922 864.576 269.899 864.768 269.852C864.959 269.805 865.146 269.747 865.328 269.677L865.727 270.769C865.507 270.881 865.237 270.979 864.915 271.063C864.597 271.147 864.233 271.189 863.823 271.189C863.081 271.189 862.502 270.981 862.087 270.566C861.676 270.146 861.471 269.572 861.471 268.844V261.795H859.238V260.64H863.039Z" fill="white"/>
<path d="M344.851 263.412C345.131 263.412 345.383 263.473 345.607 263.594C345.831 263.715 346.006 263.928 346.132 264.231C346.263 264.534 346.328 264.959 346.328 265.505V271H344.935V265.722C344.935 265.335 344.907 265.057 344.851 264.889C344.8 264.721 344.662 264.637 344.438 264.637C344.261 264.637 344.081 264.693 343.899 264.805C343.717 264.912 343.533 265.099 343.346 265.365V271H342.079V265.722C342.079 265.335 342.051 265.057 341.995 264.889C341.944 264.721 341.806 264.637 341.582 264.637C341.4 264.637 341.218 264.693 341.036 264.805C340.859 264.912 340.677 265.099 340.49 265.365V271H339.09V263.608H340.273L340.378 264.406C340.588 264.112 340.817 263.874 341.064 263.692C341.311 263.505 341.61 263.412 341.96 263.412C342.24 263.412 342.494 263.482 342.723 263.622C342.952 263.762 343.12 264.007 343.227 264.357C343.432 264.077 343.666 263.851 343.927 263.678C344.188 263.501 344.496 263.412 344.851 263.412ZM353.659 269.187C353.659 269.476 353.703 269.689 353.792 269.824C353.88 269.955 354.023 270.053 354.219 270.118L353.869 271.182C353.505 271.14 353.192 271.04 352.931 270.881C352.669 270.722 352.471 270.482 352.336 270.16C352.065 270.501 351.722 270.757 351.307 270.93C350.891 271.103 350.448 271.189 349.977 271.189C349.23 271.189 348.637 270.979 348.199 270.559C347.765 270.134 347.548 269.579 347.548 268.893C347.548 268.114 347.851 267.514 348.458 267.094C349.064 266.674 349.932 266.464 351.062 266.464H352.119V265.981C352.119 265.505 351.974 265.162 351.685 264.952C351.4 264.742 350.996 264.637 350.474 264.637C350.231 264.637 349.937 264.67 349.592 264.735C349.246 264.796 348.885 264.891 348.507 265.022L348.122 263.916C348.584 263.743 349.036 263.617 349.48 263.538C349.923 263.454 350.334 263.412 350.712 263.412C351.701 263.412 352.438 263.631 352.924 264.07C353.414 264.509 353.659 265.115 353.659 265.89V269.187ZM350.453 270.034C350.77 270.034 351.08 269.95 351.384 269.782C351.687 269.614 351.932 269.378 352.119 269.075V267.444H351.251C350.513 267.444 349.986 267.568 349.669 267.815C349.351 268.058 349.193 268.394 349.193 268.823C349.193 269.215 349.298 269.516 349.508 269.726C349.722 269.931 350.037 270.034 350.453 270.034ZM360.303 263.608V269.852H362.312V271H356.523V269.852H358.735V264.756H356.593V263.608H360.303ZM359.211 259.989C359.519 259.989 359.766 260.082 359.953 260.269C360.144 260.456 360.24 260.689 360.24 260.969C360.24 261.249 360.144 261.485 359.953 261.676C359.766 261.867 359.519 261.963 359.211 261.963C358.912 261.963 358.667 261.867 358.476 261.676C358.285 261.485 358.189 261.249 358.189 260.969C358.189 260.689 358.285 260.456 358.476 260.269C358.667 260.082 358.912 259.989 359.211 259.989ZM367.767 260.64V268.984C367.767 269.325 367.869 269.567 368.075 269.712C368.285 269.852 368.555 269.922 368.887 269.922C369.101 269.922 369.304 269.899 369.496 269.852C369.687 269.805 369.874 269.747 370.056 269.677L370.455 270.769C370.235 270.881 369.965 270.979 369.643 271.063C369.325 271.147 368.961 271.189 368.551 271.189C367.809 271.189 367.23 270.981 366.815 270.566C366.404 270.146 366.199 269.572 366.199 268.844V261.795H363.966V260.64H367.767ZM378.996 262.67L379.416 263.972C379.122 264.07 378.798 264.135 378.443 264.168C378.093 264.201 377.701 264.217 377.267 264.217C377.711 264.413 378.044 264.665 378.268 264.973C378.492 265.276 378.604 265.65 378.604 266.093C378.604 266.574 378.488 267.003 378.254 267.381C378.021 267.759 377.687 268.055 377.253 268.27C376.819 268.485 376.299 268.592 375.692 268.592C375.478 268.592 375.291 268.583 375.132 268.564C374.978 268.545 374.827 268.515 374.677 268.473C374.584 268.538 374.505 268.627 374.439 268.739C374.379 268.846 374.348 268.961 374.348 269.082C374.348 269.231 374.409 269.362 374.53 269.474C374.656 269.581 374.904 269.635 375.272 269.635H376.56C377.088 269.635 377.552 269.726 377.953 269.908C378.359 270.085 378.677 270.33 378.905 270.643C379.139 270.951 379.255 271.301 379.255 271.693C379.255 272.43 378.938 273.002 378.303 273.408C377.669 273.814 376.754 274.017 375.559 274.017C374.715 274.017 374.052 273.931 373.571 273.758C373.091 273.585 372.752 273.329 372.556 272.988C372.36 272.647 372.262 272.23 372.262 271.735H373.669C373.669 271.992 373.718 272.204 373.816 272.372C373.919 272.54 374.108 272.666 374.383 272.75C374.659 272.834 375.055 272.876 375.573 272.876C376.091 272.876 376.502 272.832 376.805 272.743C377.113 272.659 377.335 272.535 377.47 272.372C377.61 272.213 377.68 272.022 377.68 271.798C377.68 271.499 377.55 271.268 377.288 271.105C377.027 270.942 376.677 270.86 376.238 270.86H374.971C374.271 270.86 373.758 270.718 373.431 270.433C373.109 270.148 372.948 269.817 372.948 269.439C372.948 269.187 373.018 268.944 373.158 268.711C373.303 268.478 373.508 268.275 373.774 268.102C373.331 267.869 373.007 267.586 372.801 267.255C372.601 266.919 372.5 266.513 372.5 266.037C372.5 265.514 372.631 265.057 372.892 264.665C373.154 264.273 373.515 263.967 373.977 263.748C374.444 263.529 374.981 263.419 375.587 263.419C376.18 263.419 376.675 263.389 377.071 263.328C377.468 263.263 377.813 263.172 378.107 263.055C378.406 262.938 378.702 262.81 378.996 262.67ZM375.601 264.497C375.102 264.497 374.726 264.639 374.474 264.924C374.222 265.204 374.096 265.57 374.096 266.023C374.096 266.49 374.225 266.865 374.481 267.15C374.743 267.43 375.123 267.57 375.622 267.57C376.084 267.57 376.437 267.435 376.679 267.164C376.927 266.893 377.05 266.508 377.05 266.009C377.05 265.505 376.929 265.127 376.686 264.875C376.444 264.623 376.082 264.497 375.601 264.497ZM381.098 271V269.88H382.183V264.721H381.098V263.608H383.38L383.667 265.323C383.942 264.702 384.283 264.231 384.689 263.909C385.099 263.582 385.627 263.419 386.271 263.419C386.49 263.419 386.686 263.438 386.859 263.475C387.036 263.508 387.211 263.552 387.384 263.608L386.915 264.952C386.765 264.91 386.625 264.88 386.495 264.861C386.364 264.838 386.219 264.826 386.061 264.826C385.524 264.826 385.06 265.027 384.668 265.428C384.28 265.829 383.975 266.399 383.751 267.136V269.88H385.242V271H381.098ZM385.998 266.331V264.511L386.194 263.608H387.384L387.118 266.331H385.998ZM393.321 263.608V269.852H395.33V271H389.541V269.852H391.753V264.756H389.611V263.608H393.321ZM392.229 259.989C392.537 259.989 392.785 260.082 392.971 260.269C393.163 260.456 393.258 260.689 393.258 260.969C393.258 261.249 393.163 261.485 392.971 261.676C392.785 261.867 392.537 261.963 392.229 261.963C391.931 261.963 391.686 261.867 391.494 261.676C391.303 261.485 391.207 261.249 391.207 260.969C391.207 260.689 391.303 260.456 391.494 260.269C391.686 260.082 391.931 259.989 392.229 259.989ZM401.877 260.465L403.445 260.64V271H402.066L401.954 270.09C401.702 270.44 401.401 270.711 401.051 270.902C400.701 271.093 400.309 271.189 399.875 271.189C399.24 271.189 398.717 271.028 398.307 270.706C397.896 270.379 397.59 269.924 397.39 269.341C397.194 268.753 397.096 268.074 397.096 267.304C397.096 266.553 397.212 265.885 397.446 265.302C397.679 264.714 398.013 264.252 398.447 263.916C398.881 263.58 399.403 263.412 400.015 263.412C400.402 263.412 400.75 263.482 401.058 263.622C401.366 263.757 401.639 263.956 401.877 264.217V260.465ZM400.428 264.616C399.9 264.616 399.49 264.835 399.196 265.274C398.902 265.708 398.755 266.385 398.755 267.304C398.755 267.934 398.815 268.447 398.937 268.844C399.058 269.236 399.233 269.525 399.462 269.712C399.69 269.894 399.966 269.985 400.288 269.985C400.642 269.985 400.95 269.882 401.212 269.677C401.473 269.472 401.695 269.224 401.877 268.935V265.435C401.695 265.174 401.482 264.973 401.24 264.833C400.997 264.688 400.726 264.616 400.428 264.616Z" fill="#00FF9F"/>
</svg>
